<svg width="3730" height="3713" xmlns="http://www.w3.org/2000/svg" xmlns:xlink="http://www.w3.org/1999/xlink" xml:space="preserve" overflow="hidden"><defs><linearGradient x1="255.22" y1="106.611" x2="3534.67" y2="3710.86" gradientUnits="userSpaceOnUse" spreadMethod="pad" id="fill0"><stop offset="0" stop-color="#FF007E"/><stop offset="0.5" stop-color="#FF007E"/><stop offset="1" stop-color="#FF007E"/></linearGradient></defs><g transform="translate(2217 -8)"><path d="M3546.55 496.393C3609.74 518.65 3664.15 543.863 3710.77 572.774L3710.77 590.365C3663.38 559.902 3607.35 533.548 3541.62 510.395 3417.44 466.656 3265.2 433.034 3062.53 404.595 3027.47 399.677 2991.45 395.035 2956.61 390.549 2829.18 374.14 2697.41 357.17 2575.37 322.106 2289.2 239.878 2072.11 236.012 1892.19 309.919 1704.4 387.066 1563.93 539.36 1384.78 776.353 1340.6 834.794 1295.2 895.852 1247.13 960.497 1158.51 1079.68 1066.88 1202.93 963.27 1336.43 804.468 1541.04 656.928 1714.08 512.215 1865.44 498.111 1880.19 484.388 1894.48 471.056 1908.37 255.444 2132.95 147.219 2245.68 199.63 2439.59 235.02 2570.52 345.861 2732.26 565.674 3023.73 661.353 3150.59 718.221 3274.12 773.216 3393.59L785.004 3419.16C836.809 3531.27 881.085 3624.64 931.393 3710.77L914.173 3710.77C865.366 3626.23 822.016 3534.64 771.531 3425.39L759.732 3399.79C705.067 3281.04 648.539 3158.25 553.824 3032.66 332.841 2739.65 221.329 2576.74 185.301 2443.46 130.701 2241.46 247.79 2119.49 460.351 1898.09 473.673 1884.21 487.389 1869.93 501.489 1855.18 645.843 1704.2 793.06 1531.53 951.543 1327.32 1055.06 1193.95 1146.65 1070.77 1235.22 951.64 1283.3 886.97 1328.72 825.891 1372.93 767.403 1523.3 568.503 1675.72 382.798 1886.55 296.192 2069.72 220.937 2289.91 224.64 2579.47 307.843 2700.42 342.591 2831.62 359.489 2958.5 375.829 2993.39 380.319 3029.45 384.965 3064.59 389.897 3268.27 418.478 3421.41 452.317 3546.55 496.393ZM3131.79 517.476C3110.98 514.16 3090.05 510.823 3069.05 507.387 2897.07 479.252 2748.1 447.559 2613.62 410.498 2352.61 338.562 2142.92 343.871 1953.72 427.211 1787.14 500.586 1638.67 632.916 1457.27 869.695 1408.33 933.572 1359.52 1002.34 1307.85 1075.15 1231.77 1182.36 1153.1 1293.22 1060.29 1408.44 1039.55 1434.2 1016.96 1457.68 995.116 1480.39 978.051 1498.13 961.933 1514.89 946.749 1532.54 929.105 1553.03 912.899 1574.04 897.23 1594.36 878.27 1618.94 860.365 1642.16 840.948 1663.32 818.673 1687.6 795.002 1709.35 772.111 1730.38 753.684 1747.3 736.275 1763.3 719.968 1780.16 694.869 1806.1 670.84 1830.83 647.869 1854.47 538.564 1966.96 452.227 2055.81 389.68 2133.3 284.619 2263.45 242.652 2379.69 339.027 2588.71 388.372 2695.73 476.553 2821.41 598.603 2995.36L599.737 2996.99C679.254 3110.31 729.901 3221.18 778.88 3328.4 786.066 3344.14 793.18 3359.71 800.293 3375.08 861.884 3508.16 915.331 3613.58 981.739 3710.77L998.914 3710.77C930.473 3612.15 876.067 3505.23 813.092 3369.16 805.986 3353.81 798.883 3338.26 791.705 3322.54 742.461 3214.74 691.543 3103.28 611.283 2988.89L610.145 2987.27C488.519 2813.92 400.646 2688.67 351.833 2582.8 258.045 2379.4 296.635 2271.01 400.653 2142.15 462.794 2065.17 548.928 1976.53 657.983 1864.3 680.961 1840.65 704.998 1815.91 730.1 1789.96 746.121 1773.4 763.381 1757.54 781.649 1740.76 804.761 1719.53 828.656 1697.58 851.341 1672.85 871.164 1651.24 889.25 1627.79 908.395 1602.97 923.952 1582.8 940.038 1561.94 957.436 1541.73 972.366 1524.39 988.354 1507.76 1005.28 1490.17 1027.34 1467.23 1050.14 1443.52 1071.27 1417.28 1164.35 1301.72 1243.14 1190.69 1319.35 1083.31 1370.94 1010.61 1419.68 941.943 1468.46 878.269 1648.32 643.505 1795.15 512.468 1959.4 440.119 2058.86 396.307 2164.19 374.463 2280.09 374.463 2381 374.463 2489.92 391.034 2609.87 424.094 2744.84 461.289 2894.3 493.088 3066.77 521.303 3087.8 524.742 3108.75 528.083 3129.57 531.402 3271.89 554.084 3406.32 575.511 3520.45 621.36 3596.74 652.006 3659.87 691.43 3710.77 740.028L3710.77 720.536C3660.38 674.96 3598.91 637.685 3525.7 608.278 3410.1 561.835 3274.91 540.288 3131.79 517.476ZM3620.09 3710.77 3649.48 3710.77C3657.82 3706.09 3666.1 3701.33 3674.27 3696.42 3686.73 3688.94 3698.83 3681.21 3710.77 3673.37L3710.77 3656.45C3696.51 3665.98 3682 3675.34 3667.02 3684.33 3651.7 3693.53 3636.04 3702.28 3620.09 3710.77ZM3467.07 3710.77 3499.5 3710.77C3546.84 3689.12 3592.11 3666.8 3634.62 3641.03 3661.35 3624.82 3686.59 3607.55 3710.77 3589.87L3710.77 3573.34C3684.52 3592.84 3656.94 3611.87 3627.69 3629.61 3577.82 3659.84 3523.86 3685.4 3467.07 3710.77ZM3502.03 728.4C3388.3 675.974 3252.58 650.332 3108.9 623.182L3074.92 616.747C2918.14 586.915 2773.67 554.722 2645.49 521.053 2397.73 455.973 2198.32 465.449 2017.96 550.884 1862.36 624.585 1726.25 748.037 1548.18 976.996 1505.05 1032.45 1461.93 1091.52 1416.26 1154.04 1338.64 1260.34 1258.38 1370.26 1162.55 1484.52 1142.31 1508.65 1120.26 1530.61 1098.95 1551.85 1082.46 1568.27 1066.89 1583.79 1052.13 1600.19 1035.12 1619.08 1019.4 1638.55 1004.18 1657.37 985.509 1680.48 967.868 1702.32 948.742 1722.22 927.3 1744.54 904.47 1764.57 882.39 1783.94 864.329 1799.78 847.268 1814.75 831.175 1830.66 796.035 1865.4 762.928 1897.81 731.836 1928.25 641.636 2016.55 570.388 2086.3 513.799 2149.59 404.534 2271.79 354.815 2379.53 424.008 2568.63 462.094 2672.7 539.898 2797.02 645.658 2961.3 710.115 3061.42 754.234 3159.41 796.905 3254.16 807.689 3278.12 818.3 3301.68 829.023 3324.77 880.006 3434.57 944.27 3562.38 1034.39 3677.9 1043.24 3689.24 1052.16 3700.12 1061.13 3710.77L1078.57 3710.77C1067.25 3697.62 1056.04 3683.94 1044.92 3669.68 955.635 3555.23 891.805 3428.25 841.141 3319.15 830.439 3296.1 819.847 3272.58 809.084 3248.68 766.215 3153.47 721.888 3055.03 656.892 2954.07 551.602 2790.52 474.165 2666.81 436.554 2564.04 369.322 2380.3 415.333 2279.76 523.757 2158.5 580.053 2095.53 651.159 2025.92 741.182 1937.79 772.288 1907.34 805.41 1874.92 840.568 1840.16 856.379 1824.53 873.294 1809.69 891.2 1793.98 913.49 1774.42 936.541 1754.2 958.374 1731.48 977.899 1711.16 995.714 1689.11 1014.58 1665.77 1029.68 1647.08 1045.29 1627.75 1062.06 1609.13 1076.58 1593 1092.02 1577.6 1108.38 1561.31 1129.9 1539.87 1152.16 1517.69 1172.78 1493.1 1268.9 1378.5 1349.3 1268.4 1427.05 1161.93 1472.65 1099.48 1515.72 1040.5 1558.73 985.2 1735.41 758.021 1870.12 635.688 2023.68 562.958 2123.79 515.541 2230 491.954 2347.51 491.954 2438.18 491.954 2535.59 505.996 2642.1 533.975 2770.56 567.717 2915.35 599.983 3072.42 629.872L3106.42 636.308C3249.27 663.302 3384.2 688.795 3496.43 740.532 3587.99 782.733 3658.95 838.764 3710.77 910.006L3710.77 887.954C3658.74 821.629 3589.63 768.774 3502.03 728.4ZM3353.79 3686.94 3322.68 3699.98C3314.14 3703.57 3305.56 3707.17 3296.95 3710.77L3329.57 3710.77 3358.65 3698.58C3443.59 3663.08 3523.82 3629.54 3595.11 3585.88 3637.06 3560.19 3675.47 3531.65 3710.77 3502.7L3710.77 3486.24C3673.64 3517.16 3633.11 3547.81 3588.52 3575.12 3518.06 3618.27 3438.26 3651.63 3353.79 3686.94ZM3478.55 848.764C3366.02 788.87 3228.15 758.441 3082.19 726.229L3081.25 726.022C2940.05 694.861 2804.17 663.095 2677.37 631.611 2443.1 573.431 2254.06 587.169 2082.46 674.854 1906.37 764.822 1765.33 924.842 1639.14 1084.37 1601.98 1131.34 1564.75 1180.79 1525.34 1233.15 1446.05 1338.5 1364.06 1447.42 1264.81 1560.59 1245.07 1583.11 1223.56 1603.55 1202.76 1623.31 1186.85 1638.42 1171.83 1652.69 1157.5 1667.85 1141.14 1685.15 1125.9 1703.08 1111.15 1720.42 1092.76 1742.05 1075.38 1762.49 1056.53 1781.13 1035.95 1801.48 1013.97 1819.79 992.724 1837.5 975.011 1852.26 958.284 1866.2 942.382 1881.16 895.911 1924.88 851.921 1965.51 813.11 2001.36 745.128 2064.14 686.419 2118.37 637.762 2167.39 524.891 2281.09 467.867 2379.79 510.396 2547.82 534.933 2644.74 595.414 2759.73 691.586 2925.6 741.178 3011.14 777.945 3094.9 813.498 3175.9 828.537 3210.16 842.742 3242.52 857.665 3274.48 922.691 3413.79 984.748 3515.82 1058.88 3605.31 1091.45 3644.62 1125.11 3679.57 1160.5 3710.77L1179.41 3710.77C1140.9 3677.91 1104.42 3640.5 1068.6 3597.25 995.177 3508.63 933.649 3407.44 869.094 3269.15 854.237 3237.32 840.061 3205.02 825.051 3170.83 789.356 3089.51 752.448 3005.43 702.501 2919.28 606.887 2754.37 546.801 2640.22 522.63 2544.72 481.355 2381.66 534.397 2289.43 646.716 2176.27 695.177 2127.45 753.796 2073.31 821.67 2010.63 860.502 1974.76 904.514 1934.11 951.029 1890.35 966.651 1875.65 983.241 1861.83 1000.8 1847.19 1022.25 1829.32 1044.43 1810.83 1065.4 1790.1 1084.64 1771.08 1102.19 1750.44 1120.77 1728.59 1135.4 1711.37 1150.54 1693.57 1166.67 1676.52 1180.77 1661.61 1195.67 1647.45 1211.45 1632.46 1232.45 1612.5 1254.17 1591.86 1274.3 1568.91 1373.85 1455.39 1455.99 1346.27 1535.42 1240.74 1574.79 1188.44 1611.97 1139.06 1649.03 1092.19 1774.34 933.789 1914.26 774.958 2088.2 686.088 2188.94 634.616 2295.91 609.093 2414.96 609.093 2495.32 609.093 2581.18 620.725 2674.33 643.853 2801.23 675.365 2937.23 707.157 3078.53 738.343L3079.47 738.55C3224.57 770.57 3361.62 800.818 3472.63 859.904 3585.64 920.052 3663.95 1003.85 3710.77 1115.08L3710.77 1084.47C3661.92 983.203 3585.4 905.631 3478.55 848.764ZM3455.13 969.567C3352.8 906.122 3223.15 869.851 3088.16 835.298 2940.83 797.582 2820.43 767.986 2709.25 742.159 2488.77 690.944 2310.2 709.074 2147.27 799.176 1996.74 882.429 1871.65 1016.35 1730.15 1191.81 1699.16 1230.23 1668.12 1270.15 1635.26 1312.43 1557.91 1411.93 1470.23 1524.71 1367.08 1636.68 1347.84 1657.56 1326.86 1676.46 1306.57 1694.74 1291.92 1707.94 1276.76 1721.59 1262.86 1735.51 1247.15 1751.24 1232.4 1767.64 1218.12 1783.51 1200.01 1803.65 1182.89 1822.68 1164.31 1840.04 1144.59 1858.46 1123.48 1875.06 1103.07 1891.12 1085.7 1904.78 1069.3 1917.68 1053.59 1931.67 994.58 1984.21 939.911 2031.3 891.678 2072.86 842.362 2115.34 799.771 2152.03 761.225 2186.89 645.586 2291.45 581.977 2380.54 599.049 2526.48 608.884 2610.56 649.003 2715.85 737.522 2889.9 772.498 2958.68 800.818 3026.14 828.207 3091.38 847.707 3137.84 866.13 3181.72 886.126 3224.25 944.807 3349.03 1007.49 3447.05 1083.39 3532.73 1150.42 3608.4 1221.19 3666.21 1301.83 3710.77L1327.04 3710.77C1239.42 3665.57 1163.71 3605.51 1092.27 3524.86 1017.15 3440.05 955.058 3342.92 896.875 3219.2 876.98 3176.9 858.607 3133.13 839.155 3086.79 811.683 3021.35 783.279 2953.68 748.103 2884.52 660.269 2711.81 620.502 2607.68 610.841 2525.1 594.28 2383.53 653.717 2300.11 769.19 2195.69 807.631 2160.93 850.171 2124.28 899.429 2081.85 947.698 2040.27 1002.4 1993.14 1061.49 1940.54 1076.93 1926.79 1093.19 1914 1110.41 1900.46 1131.02 1884.24 1152.32 1867.48 1172.41 1848.72 1191.38 1831.01 1208.66 1811.79 1226.95 1791.45 1241.12 1775.7 1255.77 1759.41 1271.26 1743.9 1284.95 1730.21 1299.31 1717.27 1314.51 1703.57 1335.01 1685.1 1356.2 1666.01 1375.81 1644.72 1479.3 1532.39 1567.14 1419.4 1644.63 1319.72 1677.46 1277.49 1708.47 1237.6 1739.39 1199.26 1880.02 1024.89 2004.17 891.887 2153.01 809.569 2254.37 753.512 2361.97 725.823 2482.42 725.823 2552.37 725.823 2626.68 735.172 2706.56 753.726 2817.65 779.531 2937.97 809.109 3085.22 846.8 3219.28 881.117 3347.97 917.098 3448.87 979.656 3562.76 1050.27 3637.13 1148.53 3676.24 1280.06 3687.8 1318.96 3699.73 1360.7 3710.77 1404.29L3710.77 1357.62C3703.13 1329.58 3695.29 1302.5 3687.61 1276.68 3647.64 1142.23 3571.6 1041.78 3455.13 969.567ZM3308.18 3633.06 3300.82 3635.95C3232.99 3662.61 3163.11 3690.06 3087.36 3710.77L3129.63 3710.77C3191.07 3691.78 3248.84 3669.14 3305.17 3647L3312.52 3644.11C3403.22 3608.48 3484.12 3575.37 3555.8 3531.02 3615.1 3494.33 3666.26 3451.68 3710.77 3410.2L3710.77 3394.02C3664.89 3437.4 3611.6 3482.53 3549.55 3520.92 3478.71 3564.75 3398.33 3597.64 3308.18 3633.06ZM3633.94 1391.72C3598.27 1262.69 3532.11 1164.29 3431.67 1090.91 3342.88 1026.05 3233.15 985.523 3095.72 944.621 2967 906.314 2851.01 876.247 2741.12 852.707 2534.85 808.504 2366.87 831.134 2212.48 923.911 2078.1 1004.67 1958.88 1132.41 1821.21 1299.35 1796.62 1329.17 1772.03 1359.74 1745.99 1392.11 1666.76 1490.59 1576.95 1602.22 1469.34 1712.78 1450.63 1732 1430.17 1749.36 1410.39 1766.14 1396.28 1778.11 1381.7 1790.48 1368.2 1803.19 1353.14 1817.36 1338.88 1832.26 1325.09 1846.67 1307.25 1865.31 1290.4 1882.91 1272.08 1898.97 1253.22 1915.49 1232.98 1930.4 1213.41 1944.82 1197.14 1956.8 1180.32 1969.19 1164.8 1982.18 1092.56 2042.6 1026.35 2095 967.934 2141.22 938.153 2164.79 910.022 2187.05 883.731 2208.28 786.113 2287.1 697.924 2369.12 691.097 2505.14 686.89 2588.96 714.518 2693.35 783.468 2854.19 804.185 2902.51 822.641 2950.16 840.492 2996.25 864.793 3058.98 887.743 3118.24 914.272 3174.11 967.303 3285.8 1030.62 3379.38 1107.84 3460.21 1193.76 3550.13 1284.36 3611.78 1392.95 3654.21 1460.29 3680.52 1531.71 3697.88 1603.02 3710.77L1672.1 3710.77C1579.56 3697.05 1484.65 3678.08 1397 3643.83 1289.97 3602.02 1200.65 3541.23 1115.89 3452.52 1039.5 3372.56 976.841 3279.94 924.332 3169.34 897.976 3113.83 875.096 3054.76 850.874 2992.22 832.987 2946.05 814.495 2898.31 793.701 2849.8 725.462 2690.63 698.098 2587.72 702.215 2505.7 708.219 2386.06 773.1 2311.91 890.725 2216.94 916.972 2195.75 945.082 2173.5 974.844 2149.95 1033.31 2103.68 1099.59 2051.24 1171.94 1990.72 1187.21 1977.95 1203.14 1966.21 1220.01 1953.78 1239.77 1939.23 1260.2 1924.17 1279.41 1907.34 1298.11 1890.96 1315.91 1872.36 1333.13 1854.37 1346.83 1840.06 1360.99 1825.26 1375.83 1811.29 1389.11 1798.79 1402.95 1787.05 1417.59 1774.63 1437.57 1757.68 1458.23 1740.15 1477.32 1720.54 1585.3 1609.61 1675.28 1497.77 1754.66 1399.09 1780.68 1366.75 1805.26 1336.2 1829.8 1306.44 1966.74 1140.37 2085.2 1013.39 2218.22 933.456 2321.07 871.645 2426.89 841.524 2547.31 841.524 2607.07 841.524 2670.43 848.945 2738.79 863.593 2848.39 887.071 2964.1 917.065 3092.54 955.289 3228.87 995.861 3337.6 1035.98 3425.1 1099.9 3523.43 1171.74 3588.24 1268.17 3623.21 1394.69 3649.57 1490.08 3678.81 1600.77 3692.12 1707.31 3705.42 1813.82 3704.48 1918.57 3703.58 2019.88L3703.51 2027.34C3702.58 2132.53 3701.62 2241.3 3690.58 2347.59 3683.78 2412.99 3693.06 2471.03 3710.77 2524.31L3710.77 2484.02C3700.73 2442.29 3696.57 2397.56 3701.65 2348.75 3706.15 2305.46 3708.93 2261.81 3710.77 2218.18L3710.77 1786.41C3708.99 1759.73 3706.53 1732.9 3703.16 1705.93 3689.76 1598.65 3660.4 1487.49 3633.94 1391.72ZM3510.84 3467.09C3443.61 3509.12 3365.66 3541.23 3269.3 3576.53 3182.74 3608.24 3103.87 3635.96 3015.21 3654.05 2973.07 3662.65 2930.28 3667.5 2884.98 3672.63 2862.02 3675.23 2838.27 3677.92 2814.69 3681.13 2789.19 3684.62 2763.05 3688.92 2737.76 3693.09 2697.62 3699.7 2656.12 3706.54 2614.35 3710.62 2613.74 3710.68 2613.11 3710.71 2612.5 3710.77L2697.96 3710.77C2711.95 3708.58 2725.86 3706.33 2739.57 3704.07 2764.78 3699.92 2790.85 3695.63 2816.2 3692.17 2839.65 3688.97 2863.33 3686.28 2886.23 3683.69 2931.78 3678.53 2974.81 3673.66 3017.43 3664.96 3106.85 3646.72 3186.14 3618.85 3273.13 3586.98 3370.14 3551.45 3448.69 3519.07 3516.74 3476.54 3582.3 3435.56 3642.51 3383.99 3710.77 3310.33L3710.77 3293.93C3710.75 3293.96 3710.72 3293.99 3710.7 3294.01 3639.75 3371.67 3578.11 3425.05 3510.84 3467.09ZM3662.8 2383.73C3668.56 2293.23 3665.78 2203.23 3662.82 2107.96L3661.49 2063.79C3658.93 1976.86 3656.29 1886.98 3643.27 1794.78 3630.76 1706.29 3608.09 1616.77 3584.1 1522L3580.25 1506.77 3580.25 1506.76C3548.92 1382.91 3492.59 1286.78 3408.04 1212.91 3337.3 1151.1 3246.39 1103.6 3104.07 1054.1 2987.41 1013.52 2879.11 983.801 2773 963.244 2578.78 925.6 2426.18 952.104 2278.19 1049.15 2147.46 1134.87 2030.55 1267.34 1912.37 1407.01 1894.43 1428.22 1876.22 1450.04 1857.6 1472.36 1776.37 1569.72 1684.3 1680.07 1571.62 1788.88 1553.45 1806.43 1533.53 1822.2 1514.28 1837.45 1500.68 1848.22 1486.63 1859.35 1473.52 1870.86 1459.12 1883.51 1445.36 1896.93 1432.04 1909.91 1414.5 1927.02 1397.92 1943.18 1379.85 1957.92 1361.83 1972.61 1342.41 1985.87 1323.64 1998.69 1307.75 2009.54 1291.32 2020.76 1276 2032.69 1191.28 2098.65 1112.64 2154.7 1043.26 2204.15 1030.08 2213.54 1017.2 2222.72 1004.61 2231.73 902.825 2304.57 816.245 2373.93 787.66 2485.25 766.497 2567.68 779.38 2670.45 829.436 2818.46 836.593 2839.63 843.529 2860.58 850.374 2881.25 879.114 2968.05 906.257 3050.04 941.86 3124.15 990.488 3225.38 1052.73 3311.6 1132.14 3387.77 1216.54 3468.72 1303.98 3523.56 1407.31 3560.37 1511.16 3597.36 1625.23 3614.9 1724 3628.43 1825.65 3642.36 1935.06 3655.51 2046.48 3657.38 2055.96 3657.54 2065.45 3657.61 2074.97 3657.61 2144.43 3657.61 2214.79 3653.67 2283.1 3649.84 2312.1 3648.22 2341.06 3646.6 2369.94 3645.26 2402.01 3643.78 2434.32 3643.6 2465.57 3643.43 2500.86 3643.23 2537.36 3643.03 2572.63 3640.91 2615.28 3638.34 2657.43 3633.14 2698.2 3628.12 2723.27 3625.03 2749.18 3621.84 2774.3 3619.39 2797.06 3617.18 2819.96 3615.42 2842.11 3613.71 2888.73 3610.13 2932.75 3606.74 2976.28 3599.46 3071.65 3583.5 3155.8 3556.41 3233.82 3530.04 3316.49 3502.08 3403.29 3469.71 3478.06 3422.51 3547.19 3378.88 3609.86 3321.84 3675.29 3243.01 3687.99 3227.7 3699.75 3212.87 3710.77 3198.39L3710.77 3181.14C3697.58 3198.92 3683.13 3217.29 3667.3 3236.37 3602.58 3314.34 3540.69 3370.69 3472.52 3413.73 3398.66 3460.34 3312.55 3492.45 3230.49 3520.19 3152.88 3546.44 3069.18 3573.38 2974.56 3589.21 2931.49 3596.41 2887.69 3599.78 2841.32 3603.35 2819.11 3605.06 2796.16 3606.82 2773.3 3609.05 2748.04 3611.51 2722.06 3614.71 2696.93 3617.81 2656.32 3622.81 2614.33 3627.99 2572.01 3630.54 2537.01 3632.64 2500.66 3632.84 2465.51 3633.04 2434.16 3633.21 2401.74 3633.39 2369.46 3634.88 2340.55 3636.22 2311.55 3637.84 2282.52 3639.47 2205.04 3643.81 2124.93 3648.31 2046.66 3646.99 1935.79 3645.13 1826.74 3632.03 1725.41 3618.14 1627.16 3604.67 1513.71 3587.23 1410.79 3550.58 1308.89 3514.29 1222.64 3460.17 1139.33 3380.27 1060.83 3304.98 999.305 3219.73 951.224 3119.65 915.914 3046.14 888.87 2964.46 860.238 2877.99 853.385 2857.29 846.442 2836.32 839.278 2815.14 789.904 2669.14 777.09 2568.2 797.727 2487.83 825.439 2379.9 910.554 2311.82 1010.65 2240.18 1023.24 2231.18 1036.12 2222 1049.29 2212.61 1118.76 2163.1 1197.49 2106.99 1282.39 2040.88 1297.45 2029.16 1313.74 2018.03 1329.49 2007.28 1348.45 1994.33 1368.05 1980.94 1386.41 1965.97 1404.85 1950.94 1422.36 1933.86 1439.3 1917.35 1452.52 1904.46 1466.18 1891.14 1480.38 1878.67 1493.29 1867.33 1507.24 1856.28 1520.73 1845.6 1540.18 1830.19 1560.3 1814.26 1578.84 1796.36 1691.93 1687.16 1784.18 1576.58 1865.58 1479.02 1884.18 1456.71 1902.37 1434.91 1920.3 1413.72 2037.97 1274.65 2154.32 1142.79 2283.89 1057.84 2387.3 990.031 2493.06 957.264 2614.26 957.264 2663.65 957.264 2715.62 962.707 2771.02 973.441 2876.64 993.908 2984.47 1023.5 3100.66 1063.91 3241.64 1112.95 3331.53 1159.85 3401.21 1220.74 3484.11 1293.17 3539.38 1387.57 3570.17 1509.31L3570.17 1509.31 3574.03 1524.55C3597.95 1619.04 3620.55 1708.29 3632.98 1796.24 3645.92 1887.86 3648.56 1977.45 3651.1 2064.1L3652.44 2108.28C3655.38 2203.3 3658.16 2293.06 3652.43 2383.07 3646.1 2482.32 3675.06 2563.67 3710.77 2637.49L3710.77 2613.07C3680.18 2545.82 3657.19 2471.8 3662.8 2383.73ZM3688.27 2677.42C3655 2602.14 3622.63 2520.15 3623.94 2418.67 3624.92 2343.94 3618.94 2269.63 3612.62 2190.96 3611.55 2177.65 3610.48 2164.28 3609.44 2150.84 3608.23 2135.35 3607.09 2119.74 3605.94 2104.03 3600.75 2033.01 3595.38 1959.57 3583.32 1883.95 3573.43 1821.97 3558.73 1759.49 3543.16 1693.35 3537.63 1669.84 3532.02 1646.01 3526.54 1621.81 3499.57 1502.73 3452.96 1409.13 3384.05 1335.65 3320.88 1268.31 3234.85 1213.72 3113.3 1163.86 3007.9 1120.63 2907.02 1091.16 2804.88 1073.77 2626.23 1043.36 2484.23 1074.57 2344.53 1174.97 2233.86 1254.49 2133.42 1366 2003.61 1514.86 1992.57 1527.52 1981.41 1540.39 1970.09 1553.46 1886.78 1649.53 1792.36 1758.43 1673.9 1865 1656.32 1880.82 1636.98 1894.97 1618.28 1908.65 1605.16 1918.25 1591.6 1928.17 1578.83 1938.54 1565.1 1949.69 1551.84 1961.66 1539.03 1973.23 1522.53 1988.12 1505.48 2003.52 1487.64 2016.91 1470.41 2029.85 1451.77 2041.49 1433.75 2052.75 1418.28 2062.41 1402.29 2072.4 1387.21 2083.19 1292.76 2150.8 1202.61 2207.35 1123.08 2257.25 1017.87 2323.25 933.812 2380.77 888.779 2469.16 848.236 2548.74 843.992 2648.38 875.433 2782.73 897.367 2876.48 924.463 2984.07 968.514 3074.48 1013.12 3166.01 1074.5 3244.85 1156.15 3315.49 1238.03 3386.31 1324.87 3435.72 1421.66 3466.53 1514.35 3496.04 1611.94 3509.16 1720.73 3522.11 1822.71 3534.26 1922.6 3545.52 2023.37 3549.84 2068.4 3551.78 2114.23 3552.31 2158.56 3552.83 2213.97 3553.48 2271.27 3554.14 2326.87 3557.57 2344.03 3558.62 2361.1 3559.84 2378.07 3561.05 2424.43 3564.34 2468.51 3567.48 2512.54 3567.48 2518.36 3567.48 2524.18 3567.43 2530.01 3567.31 2577.77 3566.35 2624.78 3561.43 2670.24 3556.66 2690.79 3554.51 2712.04 3552.28 2732.64 3550.51 2757.96 3548.34 2783.34 3546.67 2807.88 3545.05 2852.12 3542.12 2893.91 3539.36 2935.16 3533.95 3030.92 3521.39 3116.45 3497.39 3194.62 3473.32 3305.5 3439.19 3378.86 3408.04 3439.94 3369.15 3510.67 3324.11 3571.59 3265.43 3631.65 3184.48 3665.35 3139.05 3691.47 3097.87 3710.77 3059.69L3710.77 3037.57C3691.23 3080.12 3662.62 3126.54 3623.9 3178.73 3564.56 3258.7 3504.46 3316.63 3434.75 3361.01 3374.45 3399.41 3301.78 3430.24 3191.78 3464.1 3114.02 3488.04 3028.96 3511.91 2933.9 3524.38 2892.97 3529.76 2851.32 3532.51 2807.24 3535.42 2782.65 3537.04 2757.23 3538.72 2731.82 3540.9 2711.12 3542.68 2689.83 3544.91 2669.24 3547.07 2623.97 3551.81 2577.17 3556.72 2529.81 3557.66 2480.37 3558.65 2431.01 3555.14 2378.76 3551.42 2361.75 3550.21 2344.66 3549 2327.47 3547.93 2271.62 3544.5 2214.2 3543.83 2158.67 3543.18 2114.42 3542.67 2068.66 3542.13 2023.78 3540.2 1923.35 3535.9 1823.67 3524.66 1721.87 3512.53 1613.58 3499.64 1516.46 3486.59 1424.58 3457.34 1329.07 3426.93 1243.34 3378.14 1162.47 3308.19 1081.81 3238.42 1021.21 3160.59 977.189 3070.25 933.573 2980.74 906.644 2873.77 884.825 2780.53 853.936 2648.52 857.922 2550.97 897.375 2473.54 941.288 2387.35 1024.28 2330.62 1128.2 2265.42 1207.85 2215.45 1298.14 2158.81 1392.83 2091.03 1407.65 2080.43 1423.52 2070.52 1438.86 2060.93 1457.06 2049.57 1475.87 2037.81 1493.44 2024.62 1511.62 2010.97 1528.84 1995.42 1545.49 1980.39 1558.22 1968.9 1571.38 1957.02 1584.91 1946.03 1597.49 1935.81 1610.96 1925.96 1623.98 1916.44 1642.87 1902.61 1662.41 1888.32 1680.35 1872.18 1799.26 1765.21 1893.89 1656.07 1977.38 1559.78 1988.7 1546.72 1999.85 1533.85 2010.88 1521.2 2140.27 1372.84 2240.33 1261.72 2350.16 1182.8 2454.17 1108.05 2559.47 1072.3 2680.8 1072.3 2719.8 1072.3 2760.47 1076 2803.26 1083.28 2904.69 1100.55 3004.91 1129.83 3109.64 1172.79 3229.86 1222.11 3314.82 1275.95 3377.01 1342.25 3444.72 1414.44 3490.55 1506.58 3517.13 1623.94 3522.61 1648.17 3528.23 1672.02 3533.77 1695.56 3549.29 1761.52 3563.96 1823.83 3573.79 1885.47 3585.79 1960.68 3591.14 2033.92 3596.32 2104.74 3597.47 2120.46 3598.61 2136.08 3599.82 2151.59 3600.86 2165.04 3601.94 2178.41 3603.01 2191.73 3609.31 2270.17 3615.26 2344.27 3614.3 2418.54 3612.96 2521.97 3645.75 2605.06 3679.44 2681.32L3686.63 2697.49C3695 2716.28 3703.25 2734.83 3710.77 2753.45L3710.77 2728.49C3705.75 2716.76 3700.59 2705.12 3695.44 2693.56L3688.27 2677.42ZM3640.49 2692.58C3664.03 2759.67 3688.38 2829.05 3679.05 2909.94 3671.91 2971.83 3642.98 3040.47 3587.98 3125.94 3534.82 3208.56 3474.22 3270.99 3402.72 3316.78 3341.64 3355.89 3265.45 3386.78 3155.65 3416.93 3082.53 3437.02 2994.27 3458.84 2894.08 3468.44 2851.39 3472.53 2807.98 3473.75 2762.02 3475.04 2738.76 3475.7 2714.71 3476.37 2690.65 3477.46 2670.22 3478.37 2649.11 3479.68 2628.69 3480.96 2588.15 3483.48 2546.39 3486.08 2503.95 3486.08 2498.34 3486.08 2492.72 3486.03 2487.09 3485.94 2439.14 3485.11 2391.48 3480.35 2341.01 3475.32 2322.14 3473.44 2303.13 3471.54 2283.99 3469.85 2232.93 3465.34 2180.01 3463.18 2128.83 3461.1 2086.58 3459.37 2042.91 3457.59 1999.79 3454.5 1916.74 3448.54 1832.67 3437.38 1751.37 3426.6L1701.33 3420C1613.23 3408.46 1522.13 3396.52 1436 3372.7 1344.33 3347.34 1260.49 3305.02 1179.68 3243.33 1095.4 3179 1034.56 3107.65 993.666 3025.18 957.378 2952.01 934.435 2863.61 921.466 2746.99 908.242 2628.13 931.406 2533.94 992.278 2459.05 1052.36 2385.15 1146.84 2334.03 1238.21 2284.59 1317.59 2241.64 1409.71 2191.02 1498.43 2133.68 1513.16 2124.17 1528.6 2115.51 1543.55 2107.13 1560.94 2097.37 1578.92 2087.29 1595.47 2075.99 1613.08 2063.96 1629.85 2050.08 1646.06 2036.65 1658.37 2026.46 1671.09 2015.92 1684.13 2006.24 1696.63 1996.95 1709.79 1988.17 1722.51 1979.69 1740.59 1967.63 1759.28 1955.15 1776.19 1941.14 1901.13 1837.59 1997.88 1730.47 2083.23 1635.95L2123.51 1591.35C2228.15 1475.34 2318.52 1375.16 2411.72 1301.43 2545.2 1195.84 2672.32 1160.8 2836.75 1184.29 2935.15 1198.34 3028.96 1227.74 3123.55 1274.16 3227.19 1325.02 3304.33 1385.53 3359.4 1459.16 3413.14 1531 3450.24 1621.84 3472.81 1736.85 3480.31 1775.06 3488.73 1812.25 3496.88 1848.23 3506.7 1891.62 3515.98 1932.61 3523.32 1973.47 3533.6 2030.74 3540.37 2086.34 3546.92 2140.11 3549.93 2164.83 3552.89 2189.19 3556.14 2213.17 3558.81 2232.96 3561.62 2252.52 3564.4 2271.9 3573.4 2334.64 3581.91 2393.89 3585.08 2453.55 3589.73 2540.86 3613.79 2616.05 3635.98 2679.68L3640.49 2692.58ZM3632.09 2695.53 3627.57 2682.61C3605.18 2618.41 3580.9 2542.5 3576.19 2454.02 3573.03 2394.76 3564.56 2335.7 3555.58 2273.16 3552.8 2253.76 3549.99 2234.18 3547.31 2214.37 3544.06 2190.34 3541.09 2165.94 3538.08 2141.18 3531.55 2087.54 3524.79 2032.07 3514.56 1975.05 3507.25 1934.38 3497.99 1893.49 3488.19 1850.19 3480.03 1814.16 3471.6 1776.9 3464.07 1738.57 3441.77 1624.9 3405.19 1535.24 3352.27 1464.49 3298.06 1392.02 3221.97 1332.38 3119.63 1282.16 3025.89 1236.15 2932.95 1207.02 2835.49 1193.1 2803.68 1188.56 2773.28 1186.24 2743.98 1186.24 2624.27 1186.24 2522.8 1224.92 2417.24 1308.41 2324.64 1381.68 2234.5 1481.61 2130.12 1597.32L2089.84 1641.92C2004.28 1736.66 1907.31 1844.04 1781.88 1948 1764.61 1962.31 1745.72 1974.91 1727.45 1987.09 1714.82 1995.52 1701.76 2004.23 1689.44 2013.39 1676.59 2022.93 1663.96 2033.39 1651.74 2043.51 1635.37 2057.06 1618.45 2071.08 1600.49 2083.34 1583.62 2094.86 1565.46 2105.05 1547.9 2114.9 1533.08 2123.21 1517.76 2131.8 1503.27 2141.16 1414.28 2198.67 1321.98 2249.4 1242.45 2292.43 1151.85 2341.45 1058.16 2392.14 999.189 2464.67 939.9 2537.61 917.371 2629.64 930.315 2746.01 943.169 2861.56 965.832 2949.01 1001.65 3021.23 1041.92 3102.44 1101.92 3172.77 1185.08 3236.25 1264.97 3297.24 1347.82 3339.06 1438.38 3364.12 1523.9 3387.78 1614.69 3399.67 1702.49 3411.17L1752.54 3417.77C1833.71 3428.54 1917.65 3439.67 2000.43 3445.61 2043.41 3448.7 2087.01 3450.48 2129.19 3452.2 2180.48 3454.29 2233.51 3456.46 2284.78 3460.98 2303.95 3462.67 2322.99 3464.57 2341.89 3466.46 2392.17 3471.48 2439.66 3476.21 2487.24 3477.03 2535.14 3477.86 2582.42 3474.91 2628.14 3472.07 2648.59 3470.79 2669.75 3469.48 2690.25 3468.56 2714.38 3467.47 2738.47 3466.79 2761.77 3466.14 2807.58 3464.86 2850.84 3463.64 2893.23 3459.58 2992.74 3450.04 3080.54 3428.33 3153.29 3408.35 3262.18 3378.44 3337.63 3347.89 3397.91 3309.28 3468.32 3264.19 3528.04 3202.64 3580.5 3121.12 3634.72 3036.84 3663.23 2969.41 3670.2 2908.91 3679.29 2830.07 3656.36 2764.72 3632.09 2695.53ZM3586.96 2689.89C3601.55 2749.61 3616.63 2811.36 3609.66 2879.59 3604.14 2933.55 3583.99 2991.47 3544.3 3067.39 3499.16 3153.74 3441.23 3218.73 3367.2 3266.06 3305.88 3305.27 3228.79 3334.55 3117.25 3361 3049 3377.19 2957.3 3396.58 2853.04 3402.94 2832.31 3404.2 2811.38 3404.65 2790.09 3404.65 2764.25 3404.65 2737.9 3403.99 2710.7 3403.3 2690.3 3402.79 2669.65 3402.27 2648.74 3402.03 2625.7 3401.78 2602.82 3401.94 2578.58 3402.11 2535.13 3402.44 2490.18 3402.77 2444.52 3400.39 2407.76 3398.47 2371.3 3394.68 2332.71 3390.67 2302.9 3387.58 2272.08 3384.37 2241.19 3382.13 2209.87 3379.85 2177.52 3378.07 2146.23 3376.34 2090.6 3373.27 2033.08 3370.09 1975.76 3363.96 1912.02 3357.13 1846.84 3346.26 1783.8 3335.74 1760.14 3331.79 1736.43 3327.84 1712.65 3324.06 1692.41 3320.84 1672.1 3317.76 1651.76 3314.67 1585.5 3304.61 1516.98 3294.21 1450.35 3278.87 1365.08 3259.23 1281.69 3222.98 1202.5 3171.11 1114.94 3113.76 1054.12 3050.01 1016.57 2976.23 979.515 2903.4 963.476 2816.73 967.542 2711.27 971.521 2608.09 1012.95 2524.36 1094.21 2455.28 1160.89 2398.59 1250.7 2357.78 1337.57 2318.32L1349.05 2313.1C1436.65 2273.25 1528.85 2230.05 1609.67 2184.17 1623.88 2176.11 1638.6 2168.89 1652.83 2161.92 1670.57 2153.22 1687.32 2145.02 1703.36 2135.23 1720.79 2124.58 1737.28 2112.18 1753.23 2100.2 1764.98 2091.37 1777.12 2082.24 1789.43 2073.99 1801.78 2065.71 1814.64 2058 1827.08 2050.56 1844.42 2040.17 1862.36 2029.43 1878.49 2017.3 2010.31 1918.14 2112.2 1810.14 2186.6 1731.28 2215.91 1700.21 2243.61 1670.28 2270.4 1641.34 2347.01 1558.58 2413.17 1487.1 2479.97 1428.65 2573.14 1347.13 2684.68 1274.51 2868.61 1294.8 2963.75 1305.29 3050.84 1334.92 3134.85 1385.34 3221.28 1437.23 3288.21 1503.85 3333.79 1583.34 3373.57 1652.72 3400.67 1738.05 3419.07 1851.89 3426.8 1899.71 3437.07 1945.1 3446.99 1988.99 3452.83 2014.77 3458.33 2039.12 3463.26 2063.54 3470.75 2100.64 3477.01 2136.87 3483.06 2171.92 3489.34 2208.25 3495.26 2242.56 3502.23 2276.27 3507.45 2301.48 3513.12 2326.39 3518.61 2350.47 3529.45 2398.05 3539.69 2442.98 3546.19 2488.34 3556.68 2561.5 3571.74 2627.4 3585.09 2682.2L3586.96 2689.89ZM3579.03 2691.83 3577.16 2684.14C3563.76 2629.14 3548.65 2563 3538.11 2489.5 3531.65 2444.47 3521.45 2399.69 3510.65 2352.28 3505.15 2328.16 3499.47 2303.22 3494.24 2277.92 3487.24 2244.08 3481.3 2209.7 3475.02 2173.31 3468.97 2138.32 3462.72 2102.14 3455.26 2065.16 3450.35 2040.83 3444.85 2016.52 3439.03 1990.79 3429.08 1946.78 3418.78 1901.26 3411.01 1853.19 3392.78 1740.36 3365.98 1655.9 3326.71 1587.4 3281.83 1509.13 3215.87 1443.51 3130.65 1392.35 3047.67 1342.53 2961.66 1313.28 2867.71 1302.91 2686.92 1282.96 2577.11 1354.51 2485.35 1434.79 2418.87 1492.96 2352.84 1564.29 2276.39 1646.89 2249.59 1675.85 2221.87 1705.79 2192.53 1736.89 2117.94 1815.96 2015.77 1924.25 1883.39 2023.82 1866.93 2036.21 1848.8 2047.07 1831.27 2057.57 1818.92 2064.96 1806.16 2072.6 1793.97 2080.77 1781.85 2088.9 1769.8 2097.96 1758.14 2106.72 1742.04 2118.83 1725.38 2131.34 1707.61 2142.19 1691.26 2152.18 1673.55 2160.86 1656.43 2169.25 1642.3 2176.17 1627.69 2183.33 1613.7 2191.27 1532.6 2237.31 1440.2 2280.6 1352.43 2320.53L1340.94 2325.75C1254.59 2364.98 1165.3 2405.55 1099.5 2461.5 1020.08 2529.02 979.584 2610.82 975.703 2711.58 971.692 2815.62 987.441 2900.97 1023.85 2972.52 1060.73 3045.01 1120.63 3107.73 1206.97 3164.28 1285.35 3215.62 1367.85 3251.5 1452.18 3270.91 1518.51 3286.19 1586.87 3296.57 1652.98 3306.6 1673.34 3309.69 1693.67 3312.78 1713.94 3316 1737.73 3319.78 1761.47 3323.74 1785.14 3327.69 1848.06 3338.19 1913.13 3349.04 1976.63 3355.84 2033.74 3361.95 2091.16 3365.12 2146.68 3368.19 2178 3369.92 2210.39 3371.71 2241.78 3373.99 2272.8 3376.24 2303.68 3379.45 2333.55 3382.55 2372.04 3386.55 2408.39 3390.32 2444.95 3392.23 2490.35 3394.6 2535.17 3394.27 2578.52 3393.95 2593.73 3393.84 2608.41 3393.73 2622.95 3393.73 2631.6 3393.73 2640.21 3393.77 2648.84 3393.87 2669.78 3394.11 2690.47 3394.63 2710.91 3395.14 2760.32 3396.38 2807.01 3397.56 2852.55 3394.79 2956.18 3388.47 3047.43 3369.17 3115.36 3353.06 3225.97 3326.82 3302.29 3297.87 3362.8 3259.18 3435.6 3212.64 3492.61 3148.66 3537.06 3063.61 3576.24 2988.65 3596.13 2931.64 3601.54 2878.75 3608.37 2811.93 3593.45 2750.88 3579.03 2691.83ZM3541.1 2684.39C3548.23 2740.63 3543.81 2796.77 3537.98 2849.06 3532.04 2902.21 3525.08 2954.55 3505.37 3010.5 3476.31 3092.95 3419.82 3159.51 3332.65 3213.98 3258.65 3260.22 3174.03 3292.76 3081.14 3310.7 3000.62 3326.26 2911.57 3329.72 2811.9 3332.37 2796.28 3332.79 2780.45 3333.35 2764.41 3333.91 2730.82 3335.1 2696.48 3336.32 2661.28 3336.32 2643.29 3336.32 2625.08 3336 2606.64 3335.2 2564.42 3333.37 2521.99 3328.76 2477.07 3323.87 2452.71 3321.22 2427.51 3318.48 2402.22 3316.2 2377.07 3313.94 2352.08 3312.25 2325.63 3310.45 2284.02 3307.63 2240.98 3304.71 2197.68 3299.41 2150.27 3293.62 2103.23 3285.64 2053.44 3277.2 2020.84 3271.67 1987.14 3265.96 1953.37 3260.92 1919.8 3255.91 1885 3251.5 1851.34 3247.24 1804.68 3241.32 1756.44 3235.21 1708.36 3227.18 1665.31 3220 1621.18 3210.94 1578.5 3202.19 1541.68 3194.63 1503.6 3186.82 1465.58 3180.05 1362.83 3161.76 1285.45 3137.13 1222.06 3102.55 1142.77 3059.3 1080.22 2997.76 1041.16 2924.59 999.464 2846.48 988.557 2762.32 1008.73 2674.44 1027.14 2594.29 1085.78 2526.16 1193.28 2460.03 1267.2 2414.56 1357.04 2371.91 1453.06 2336.69 1489.4 2323.36 1525.61 2311.35 1560.63 2299.73 1620.75 2279.78 1677.53 2260.94 1723.13 2239.23 1912.16 2149.26 2047.82 2044.31 2133.42 1973.2 2268.09 1861.32 2365.93 1754.07 2452.26 1659.44 2462.04 1648.73 2471.64 1638.2 2481.1 1627.89 2608.34 1489.14 2712.88 1391.97 2900.46 1405.29 2993 1411.87 3073.67 1442.18 3147.07 1497.97 3217.77 1551.72 3271.56 1622.36 3306.91 1707.94 3340.48 1789.2 3354.82 1880.44 3365.31 1966.92 3372.91 2029.56 3383.67 2091.28 3398.21 2155.59 3408.48 2200.98 3422.06 2243.18 3435.18 2284 3441.31 2303.04 3447.1 2321.02 3452.51 2339.16 3464.69 2379.95 3474.93 2419.58 3484.83 2457.91 3490.77 2480.91 3496.38 2502.64 3502.32 2524.35 3505.47 2535.86 3508.72 2547.25 3511.94 2558.57 3524.18 2601.48 3535.73 2642.02 3541.1 2684.39ZM3533.73 2685.32C3528.44 2643.51 3516.96 2603.24 3504.81 2560.61 3501.57 2549.26 3498.32 2537.84 3495.16 2526.31 3489.2 2504.54 3483.59 2482.79 3477.64 2459.76 3467.76 2421.5 3457.54 2381.94 3445.4 2341.28 3440.01 2323.22 3434.23 2305.28 3428.12 2286.28 3414.94 2245.3 3401.31 2202.94 3390.97 2157.23 3376.38 2092.66 3365.57 2030.7 3357.94 1967.82 3347.51 1881.85 3333.28 1791.21 3300.05 1710.78 3265.2 1626.43 3212.22 1556.82 3142.57 1503.88 3070.36 1448.99 2990.99 1419.16 2899.93 1412.69 2888.69 1411.9 2877.72 1411.5 2867.05 1411.5 2702.97 1411.5 2604.71 1504.08 2486.57 1632.9 2477.12 1643.21 2467.52 1653.73 2457.74 1664.45 2371.25 1759.25 2273.23 1866.7 2138.16 1978.91 2052.25 2050.28 1916.09 2155.61 1726.32 2245.94 1680.3 2267.84 1623.31 2286.75 1562.97 2306.78 1528 2318.38 1491.85 2330.37 1455.62 2343.66 1360.05 2378.71 1270.67 2421.14 1197.16 2466.35 1091.47 2531.37 1033.9 2598.02 1015.97 2676.1 996.203 2762.19 1006.88 2844.61 1047.7 2921.09 1086.08 2992.99 1147.6 3053.48 1225.61 3096.04 1288.29 3130.22 1364.95 3154.6 1466.88 3172.74 1505 3179.53 1543.13 3187.35 1580 3194.92 1622.61 3203.66 1666.67 3212.7 1709.58 3219.86 1757.52 3227.87 1805.69 3233.97 1852.27 3239.87 1885.97 3244.14 1920.82 3248.56 1954.46 3253.58 1988.31 3258.62 2022.05 3264.35 2054.68 3269.88 2104.39 3278.31 2151.34 3286.27 2198.58 3292.05 2241.69 3297.32 2284.62 3300.23 2326.14 3303.05 2351.46 3304.77 2377.65 3306.54 2402.89 3308.81 2428.24 3311.09 2453.47 3313.84 2477.88 3316.49 2522.67 3321.36 2564.98 3325.97 2606.96 3327.78 2661.21 3330.14 2713.54 3328.29 2764.15 3326.5 2780.21 3325.93 2796.06 3325.37 2811.71 3324.95 2911.03 3322.31 2999.77 3318.87 3079.74 3303.42 3171.73 3285.64 3255.49 3253.44 3328.71 3207.69 3414.4 3154.14 3469.9 3088.84 3498.37 3008.04 3517.83 2952.83 3524.72 2900.94 3530.6 2848.23 3536.39 2796.4 3540.77 2740.79 3533.73 2685.32ZM84.6647 274.065C200.36 166.185 336.483 76.339 499.951 0L465.512 0C313.072 74.0723 184.67 160.523 74.5398 263.208 48.7746 287.233 24.0385 312.213 0 337.945L0 359.796C27.2093 330.128 55.282 301.463 84.6647 274.065ZM181.928 345.465C298.643 233.055 436.909 138.452 604.633 56.2568 647.436 35.2822 689.111 16.5798 730.017 0L693.345 0C662.232 13.3057 630.647 27.8063 598.429 43.5952 429.372 126.446 289.931 221.865 172.143 335.311 110.444 394.736 54.3733 459.674 0 528.289L0 551.054C57.517 477.658 116.613 408.375 181.928 345.465ZM3649.92 0 3597.04 0C3635.22 9.81235 3673.04 21.3551 3710.77 34.7369L3710.77 19.7552C3690.53 12.6588 3670.26 6.06896 3649.92 0ZM679.218 126.819C784.154 70.4313 881.733 28.8301 977.444 0L933.573 0C849.78 28.1742 764.079 66.0519 672.898 115.049 513.132 200.897 381.367 296.489 270.069 407.284 171.991 504.92 87.8627 617.161 0 736.024L0 758.486C91.4901 634.635 178.128 517.659 279.491 416.749 389.861 306.883 520.612 212.044 679.218 126.819ZM3398.57 0 3187.8 0C3195.61 1.03007 3203.32 1.94326 3210.91 2.69339 3261.06 7.65075 3304.81 9.31408 3343.41 10.7781 3377.37 12.0682 3406.69 13.1807 3428.17 16.3515 3524.54 30.8105 3617.04 55.0555 3710.77 90.75L3710.77 76.4994C3617.77 41.4472 3525.86 17.4984 3430.14 3.1355 3420.86 1.76842 3410.23 0.787271 3398.57 0ZM79.258 861.538C93.7894 842.035 108.18 822.575 122.494 803.22 206.674 689.371 286.192 581.838 377.41 487.913 481.286 380.949 604.586 285.988 754.365 197.596 914.972 102.815 1050.64 47.8749 1194.26 19.4643 1233.06 11.7873 1273.01 5.41668 1313.96 0L1230.28 0C1217.36 2.24676 1204.5 4.57414 1191.81 7.08544 1046.73 35.7859 909.841 91.1939 747.951 186.732 597.193 275.7 473.027 371.343 368.358 479.122 276.552 573.656 196.789 681.522 112.347 795.719 98.0474 815.055 83.6754 834.497 69.1548 853.982 45.2468 885.83 22.261 916.776 0 947.11L0 968.433C25.3295 933.76 51.7216 898.218 79.2435 861.556L79.258 861.538ZM3309.34 41.7145C3272.84 40.2831 3231.47 38.656 3185.36 33.8835 3156.17 30.8648 3125.25 25.3566 3092.52 19.5223 3055.82 12.985 3017.88 6.22297 2977.36 1.97588 2969.96 1.19857 2962.5 0.559877 2955 0L2748 0C2753.95 0.683993 2759.94 1.39788 2765.88 2.07372 2804.98 6.52375 2843.4 7.83194 2880.56 9.10027 2913.93 10.2381 2945.45 11.3108 2976.04 14.5215 3016.11 18.7251 3053.83 25.4472 3090.3 31.9447 3123.27 37.8189 3154.41 43.3669 3184.06 46.4363 3230.57 51.2487 3272.15 52.883 3308.84 54.3217 3342.38 55.6408 3371.35 56.775 3393.91 60.0727 3500.72 76.0083 3603.75 104.274 3710.77 147.231L3710.77 133.642C3604.52 91.3687 3502.01 63.4455 3395.75 47.5923 3372.51 44.1968 3343.23 43.048 3309.34 41.7145ZM191.161 920.468C210.164 895.102 228.852 869.811 247.388 844.724 323.332 741.949 395.061 644.871 475.713 558.896 572.925 455.266 688.861 360.29 830.153 268.539 933.156 201.647 1073.36 119.387 1244.69 76.6769 1397.18 38.6632 1568.58 23.3346 1745.86 9.73443 1789.55 6.38242 1833.69 3.03493 1878.18 0L1717.83 0C1549.9 13.1462 1387.48 28.8427 1241.82 65.1532 1068.78 108.291 927.467 191.185 823.688 258.581 681.585 350.861 564.927 446.435 467.052 550.772 385.926 637.257 313.993 734.603 237.839 837.668 219.322 862.73 200.652 887.995 181.674 913.333 116.735 999.313 55.7667 1080.06 0 1157.48L0 1177.88C58.2888 1096.45 122.472 1011.41 191.146 920.486L191.161 920.468ZM3275.16 85.9937C3240.49 84.5659 3201.19 82.9461 3158.49 78.3004 3129.42 75.1368 3098.82 69.4257 3066.42 63.3776 3031.83 56.92 2996.06 50.2449 2958.13 45.8601 2928.76 42.4719 2898.83 41.0731 2867.15 39.5909 2830.92 37.8986 2793.45 36.1447 2755.71 31.1801L2703.2 24.226C2640.13 15.8478 2576.15 7.41792 2512.03 0L2396.19 0C2498.2 9.08125 2601.06 22.6352 2701.63 35.9961L2754.16 42.9502C2792.4 47.9837 2830.11 49.7448 2866.59 51.4516 2898.07 52.9229 2927.8 54.3144 2956.76 57.6592 2994.29 61.9933 3029.85 68.6321 3064.25 75.0498 3096.87 81.1414 3127.69 86.8924 3157.21 90.1067 3200.3 94.7959 3239.81 96.423 3274.67 97.858 3307.67 99.217 3336.16 100.387 3359.65 103.79 3500.28 124.642 3619.71 165.526 3710.77 203.283L3710.77 190.41C3619.63 152.913 3500.85 112.723 3361.37 92.0382 3337.26 88.5485 3308.48 87.3635 3275.16 85.9937ZM0 3710.77 10.5525 3710.77C7.03199 3705.06 3.53864 3699.4 0 3693.61L0 3710.77ZM0 3460.16C42.7373 3546.07 89.7851 3630.09 136.336 3710.77L149.181 3710.77C97.993 3622.18 46.1763 3529.44 0 3434.73L0 3460.16ZM3241.47 130.277C3208.53 128.838 3171.18 127.207 3131.63 122.667 3102.66 119.34 3072.42 113.411 3040.41 107.135 3007.91 100.761 2974.3 94.1726 2938.92 89.6864 2911.14 86.1677 2882.94 84.4753 2853.07 82.6816 2817.58 80.5544 2780.89 78.3547 2744.1 72.8212L2718.76 69.009C2559.15 44.9687 2408.39 22.2583 2259.57 16.5073 2089.31 9.93737 1925.53 24.3673 1772.38 39.7178 1610.88 55.9053 1440.88 77.2277 1291.82 123.25 1132.55 172.429 998.939 259.94 900.335 330.687 764.718 427.983 658.639 520.701 566.489 622.476 496.14 700.177 432.488 786.304 365.096 877.49 342.1 908.6 318.324 940.772 294.186 972.687 264.278 1012.23 235.125 1050.41 206.863 1087.43 130.068 1188.02 60.5646 1279.07 0 1365.71L0 1385.23C62.5468 1294.84 135.093 1199.78 215.712 1094.19 243.985 1057.16 273.146 1018.96 303.064 979.406 327.242 947.437 351.036 915.243 374.047 884.107 441.268 793.15 504.765 707.24 574.744 629.948 666.346 528.775 771.868 436.557 906.822 339.732 1004.74 269.478 1137.37 182.59 1295.1 133.89 1443.23 88.1535 1612.56 66.9253 1773.49 50.7921 1900.25 38.0871 2034.28 26.0089 2173.13 26.0089 2201.6 26.0089 2230.29 26.5163 2259.14 27.6324 2407.34 33.3616 2557.8 56.0213 2717.1 80.0144L2742.44 83.8303C2779.73 89.4363 2816.67 91.6505 2852.4 93.7958 2882.08 95.5751 2910.11 97.2565 2937.52 100.732 2972.53 105.171 3005.95 111.723 3038.27 118.057 3070.5 124.381 3100.95 130.349 3130.36 133.726 3170.3 138.314 3207.86 139.952 3240.99 141.398 3273.28 142.808 3301.17 144.025 3325.39 147.504 3482.47 170.63 3611.89 217.204 3710.77 258.45L3710.77 246.396C3611.82 205.336 3483.02 159.457 3327 136.484 3302.2 132.929 3274.06 131.701 3241.47 130.277ZM105.592 3344.02C100.512 3327.09 95.2571 3309.59 87.5637 3292.57 80.4864 3276.9 71.2421 3262.34 61.4542 3246.93 52.2027 3232.36 42.6395 3217.29 35.0766 3201.21 28.6117 3187.45 23.7957 3172.78 18.6934 3157.24 13.3374 3140.92 7.69877 3124.15 0 3108.02L0 3134.72C3.1672 3143.3 6.02638 3151.96 8.82215 3160.48 13.7976 3175.63 18.9398 3191.3 25.6764 3205.63 33.5147 3222.3 43.2591 3237.65 52.6846 3252.5 62.266 3267.59 71.3182 3281.85 78.0984 3296.85 85.5054 3313.24 90.6585 3330.4 95.6412 3347.01 100.885 3364.46 105.835 3380.94 113.126 3396.26 164.917 3505.13 220.291 3609.54 274.622 3710.77L286.418 3710.77C231.299 3608.11 175.035 3502.22 122.508 3391.8 115.558 3377.2 110.716 3361.08 105.592 3344.02ZM3292.62 180.93C3267.35 177.332 3238.64 175.991 3208.25 174.574 3176.91 173.114 3141.38 171.457 3104.72 166.997 3075.81 163.481 3045.96 157.317 3014.36 150.791 2983.93 144.511 2952.47 138.013 2919.64 133.455 2893.37 129.809 2866.81 127.845 2838.69 125.765 2804.03 123.203 2768.19 120.554 2732.48 114.473L2729.14 113.904C2567.23 86.3271 2414.31 60.2792 2267.54 53.8832 2099.92 46.5776 1943.56 62.4136 1799.54 80.616 1657.44 98.5756 1491.93 124.594 1341.82 181.387 1198.01 235.787 1076.98 323.65 977.555 402.42 849.258 504.068 750.18 596.475 665.756 693.238 604.452 763.496 548.084 840.393 488.407 921.809 462.018 957.808 434.735 995.032 406.712 1032.03L406.708 1032.03C353.978 1101.12 303.912 1164.71 255.494 1226.22 169.429 1335.53 95.1012 1429.94 32.2899 1521.37 21.1331 1537.62 10.4565 1553.61 0 1569.5L0 1588.52C13.0982 1568.36 26.6132 1547.99 40.8565 1527.26 103.472 1436.11 177.706 1341.82 263.655 1232.64 312.098 1171.11 362.194 1107.48 414.971 1038.34L414.981 1038.33C443.059 1001.25 470.371 963.987 496.789 927.951 556.328 846.72 612.569 769.994 673.583 700.069 757.583 603.795 856.219 511.805 984.005 410.567 1082.81 332.289 1203.02 245.003 1345.49 191.106 1494.59 134.698 1659.34 108.809 1800.84 90.9221 1919.88 75.8761 2047.37 62.4499 2182.57 62.4499 2210.42 62.4499 2238.59 63.0188 2267.09 64.2618 2413.2 70.6324 2565.82 96.626 2727.4 124.145L2730.74 124.714C2766.93 130.878 2803.02 133.545 2837.92 136.129 2865.87 138.195 2892.27 140.148 2918.21 143.746 2950.7 148.258 2982 154.719 3012.26 160.967 3044.08 167.536 3074.13 173.744 3103.46 177.31 3140.51 181.818 3176.24 183.485 3207.76 184.952 3237.9 186.359 3266.37 187.685 3291.14 191.214 3453.18 214.878 3589.65 263.56 3690.42 303.331 3697.33 306.057 3704.04 308.798 3710.77 311.537L3710.77 300.333C3705.27 298.108 3699.85 295.879 3694.24 293.663 3592.94 253.689 3455.74 204.749 3292.62 180.93ZM3258.24 225.369C3232.73 221.763 3204.94 220.372 3175.52 218.904 3144.21 217.338 3111.83 215.722 3077.82 211.33 3048.93 207.598 3019.49 201.176 2988.32 194.378 2959.97 188.192 2930.65 181.8 2900.35 177.198 2875.51 173.425 2850.53 171.204 2824.09 168.856 2790.31 165.851 2755.38 162.746 2720.85 156.122 2571.99 127.548 2418.06 98.003 2275.12 90.7192 2102.76 81.9459 1944.46 102.018 1825.82 120.496 1642.33 149.07 1508.47 185.79 1391.81 239.563 1264.06 298.45 1154.85 387.114 1055.86 474.154 967.455 551.899 863.862 647.114 765.823 763.873 713.655 826.003 664.922 893.032 613.33 964.001 583.1 1005.58 551.842 1048.58 519.231 1091.39 446.664 1186.02 376.094 1272.58 313.838 1348.95 250.997 1426.02 191.643 1498.83 140.834 1566.81 85.8986 1640.32 39.3735 1707.83 0 1771.21L0 1789.46C40.8584 1722.58 89.9772 1650.97 148.56 1572.59 199.249 1504.77 258.542 1432.04 321.313 1355.04 383.617 1278.62 454.231 1192.01 526.884 1097.26L526.895 1097.25C559.575 1054.35 590.87 1011.3 621.132 969.676 672.623 898.849 721.258 831.946 773.212 770.077 870.838 653.811 974.098 558.903 1062.23 481.401 1160.67 394.839 1269.22 306.694 1395.85 248.326 1511.67 194.943 1644.73 158.459 1827.31 130.027 1925.8 114.691 2051.7 98.2422 2190.17 98.2422 2217.86 98.2422 2246.05 98.9017 2274.62 100.355 2416.89 107.602 2570.49 137.086 2719.03 165.594 2754.04 172.313 2789.22 175.44 2823.24 178.466 2849.53 180.803 2874.36 183.01 2898.9 186.735 2928.89 191.291 2958.06 197.654 2986.26 203.803 3017.65 210.649 3047.29 217.114 3076.59 220.897 3110.97 225.34 3143.54 226.967 3175.04 228.54 3204.23 230 3231.81 231.377 3256.88 234.917 3407.78 256.751 3536.78 298.377 3643.06 336.217 3666.8 344.667 3689.25 353.115 3710.77 361.595L3710.77 351.216C3690.22 343.167 3668.82 335.148 3646.3 327.129 3539.57 289.13 3410 247.322 3258.24 225.369ZM257.763 3375.1C251.03 3361 246.181 3345.68 241.046 3329.46 235.632 3312.35 230.033 3294.66 221.862 3277.65 214.216 3261.75 204.308 3247.16 193.814 3231.71 184.58 3218.12 175.031 3204.06 167.247 3189.11 160.482 3176.12 155.18 3162.28 149.563 3147.62 142.678 3129.65 135.561 3111.07 125.4 3093.75 113.209 3072.97 99.6129 3053.27 86.4657 3034.23 70.376 3010.93 55.1814 2988.92 42.7047 2965.53 28.5103 2938.93 17.6461 2910.99 7.13708 2883.97 4.73631 2877.79 2.36997 2871.75 0 2865.77L0 2892.2C10.0488 2918.01 20.5578 2944.52 34.1888 2970.07 46.9264 2993.94 62.2768 3016.17 78.526 3039.71 91.5753 3058.61 105.067 3078.16 117.08 3098.63 126.835 3115.26 133.811 3133.47 140.555 3151.07 146.019 3165.33 151.672 3180.09 158.688 3193.57 166.733 3209.02 176.445 3223.31 185.834 3237.14 196.118 3252.28 205.834 3266.58 213.165 3281.83 221.043 3298.22 226.537 3315.58 231.849 3332.37 237.085 3348.92 242.032 3364.55 249.058 3379.26 291.287 3467.73 334.261 3554.62 375.819 3638.65 387.763 3662.79 399.609 3686.79 411.438 3710.77L422.196 3710.77C409.676 3685.37 397.12 3659.95 384.469 3634.37 342.922 3550.37 299.966 3463.51 257.763 3375.1ZM393.014 3358.41C386.513 3344.85 381.679 3330.33 376.558 3314.96 370.778 3297.6 364.799 3279.65 356.087 3262.62 347.843 3246.5 336.729 3231.23 325.984 3216.47 316.791 3203.85 307.286 3190.79 299.321 3176.94 292.283 3164.7 286.536 3151.67 280.448 3137.88 272.62 3120.14 264.525 3101.79 253.349 3084.96 239.564 3064.18 224.431 3044.78 209.802 3026.03 192.984 3004.47 177.104 2984.11 163.693 2962.49 147.875 2936.99 135.228 2910.31 122.997 2884.51 113.546 2864.57 104.617 2845.73 94.4163 2827.6 83.1354 2807.54 70.7928 2788.54 58.8523 2770.17 42.8496 2745.55 27.7348 2722.29 15.9139 2697.92 10.3695 2686.49 5.10865 2675.27 0 2664.16L0 2685.25C2.59917 2690.74 5.20016 2696.23 7.9017 2701.8 19.9653 2726.67 35.2288 2750.16 51.3873 2775.02 63.248 2793.28 75.5146 2812.15 86.6542 2831.96 96.703 2849.82 105.567 2868.53 114.952 2888.33 127.288 2914.35 140.04 2941.26 156.126 2967.19 169.788 2989.21 185.812 3009.75 202.779 3031.5 217.307 3050.13 232.331 3069.39 245.927 3089.88 256.687 3106.09 264.623 3124.08 272.302 3141.47 278.212 3154.87 284.325 3168.73 291.602 3181.38 299.803 3195.64 309.453 3208.9 318.784 3221.72 329.815 3236.86 340.23 3251.17 348.159 3266.68 356.562 3283.11 362.433 3300.73 368.111 3317.78 373.319 3333.42 378.243 3348.19 384.984 3362.25 444.94 3487.42 497.851 3601.43 546.732 3710.77L556.491 3710.77 555.194 3707.87C506.189 3598.24 453.14 3483.93 393.014 3358.41ZM3223.87 269.807C3198.35 266.224 3171.59 264.788 3143.25 263.274 3113.37 261.676 3082.47 260.02 3050.87 255.678 3021.91 251.696 2992.89 244.988 2962.16 237.889 2935.9 231.823 2908.75 225.546 2881 220.937 2857.53 217.038 2833 214.457 2809.27 211.961 2776.41 208.507 2742.44 204.934 2709.21 197.766 2545.29 162.409 2409.75 134.745 2282.2 126.943 2146.2 118.63 2013.2 128.577 1850.99 159.223 1684.19 190.732 1554.17 234.765 1441.81 297.794 1325.53 363.022 1226.58 455.94 1135.19 545.517 1047.89 631.09 955.225 723.852 866.402 833.979 822.833 888.003 781.558 945.458 737.862 1006.29 704.001 1053.43 668.985 1102.17 631.75 1150.75 542.213 1267.01 456.333 1368.3 380.559 1457.66 333.848 1512.75 289.725 1564.79 250.001 1614.1 133.845 1758.31 54.2311 1870.39 0 1967.99L0 1986.54C54.0128 1886.12 135.37 1770.61 256.937 1619.69 296.588 1570.47 340.675 1518.47 387.354 1463.42 463.189 1373.98 549.142 1272.61 638.806 1156.19L638.813 1156.18C676.134 1107.48 711.191 1058.68 745.095 1011.48 788.719 950.76 829.921 893.402 873.334 839.567 961.853 729.816 1054.31 637.265 1141.42 551.877 1232.38 462.72 1330.84 370.256 1446.17 305.563 1557.66 243.02 1686.82 199.299 1852.64 167.971 1977.91 144.308 2085.63 133.038 2190.79 133.038 2221.17 133.038 2251.34 133.98 2281.65 135.832 2408.59 143.594 2543.78 171.197 2707.34 206.471 2741.03 213.74 2775.25 217.338 2808.34 220.817 2833.02 223.416 2856.34 225.865 2879.54 229.721 2907.02 234.287 2934.03 240.531 2960.15 246.564 2991.08 253.714 3020.3 260.465 3049.66 264.499 3081.63 268.894 3112.71 270.558 3142.77 272.167 3170.91 273.674 3197.49 275.095 3222.62 278.624 3362.89 298.693 3490.28 335.402 3596.39 368.661 3633.39 380.261 3672.05 393.049 3710.77 407.61L3710.77 398.079C3672.92 383.941 3635.21 371.499 3599.06 360.167 3492.6 326.795 3364.78 289.963 3223.87 269.807ZM3189.5 314.242C3164.23 310.713 3138.58 309.249 3111.43 307.698 3082.87 306.067 3053.33 304.382 3023.91 300.073 2994.79 295.815 2966.19 288.789 2935.9 281.353 2911.77 275.428 2886.82 269.3 2861.63 264.72 2839.47 260.686 2816.49 257.856 2794.26 255.117 2762.36 251.188 2729.38 247.126 2697.56 239.415 2540.65 201.379 2410.91 171.559 2288.65 162.431 2153.65 152.342 2022.1 163.231 1874.73 196.69 1723.57 231.007 1598.33 283.143 1491.84 356.083 1394.81 422.543 1312.75 509.511 1215.56 616.301L1196.06 637.707C1121.12 719.927 1043.62 804.945 967.528 903.433 932.04 949.368 898.012 997.521 861.988 1048.5 824.728 1101.22 786.204 1155.74 744.269 1210.12L744.273 1210.11C639.962 1345.01 540.774 1457.29 453.26 1556.34 420.153 1593.81 388.883 1629.21 359.519 1663.35 177.934 1874.47 69.0896 2013.83 13.9933 2145.41 8.76779 2157.89 4.14563 2170.31 0 2182.72L0 2210.66C5.63773 2189.99 12.8192 2169.35 21.5236 2148.56 76.1995 2017.98 184.671 1879.16 365.709 1668.67 395.036 1634.57 426.291 1599.2 459.377 1561.75 546.975 1462.6 646.26 1350.22 750.73 1215.11L750.734 1215.1C792.774 1160.58 831.349 1106 868.652 1053.21 904.626 1002.3 938.606 954.224 973.985 908.426 1049.88 810.196 1127.26 725.305 1202.09 643.208L1221.6 621.794C1318.42 515.407 1400.15 428.78 1496.46 362.816 1602.08 290.47 1726.4 238.733 1876.53 204.648 1988.19 179.299 2090.66 166.978 2192.47 166.978 2224.31 166.978 2256.09 168.182 2288.04 170.57 2409.68 179.654 2539.1 209.402 2695.64 247.351 2727.92 255.171 2761.14 259.266 2793.26 263.219 2815.38 265.944 2838.24 268.76 2860.17 272.75 2885.11 277.287 2909.94 283.386 2933.95 289.282 2963.1 296.435 2993.23 303.835 3022.73 308.151 3052.51 312.51 3082.23 314.206 3110.97 315.848 3137.94 317.388 3163.42 318.845 3188.36 322.327 3316.69 340.446 3438.21 370.6 3550.41 400.482 3608.65 415.995 3661.91 431.599 3710.77 449.003L3710.77 440.346C3662.42 423.252 3609.87 407.872 3552.51 392.596 3440.06 362.646 3318.26 332.423 3189.5 314.242ZM680.842 3689.93C630.076 3563.6 580.165 3449.7 528.261 3341.71 522.018 3328.73 517.223 3315.03 512.146 3300.53 505.964 3282.87 499.568 3264.61 490.27 3247.52 481.384 3231.19 469.494 3215.97 457.992 3201.26 448.868 3189.58 439.428 3177.51 431.332 3164.73 424.041 3153.23 417.884 3141 411.368 3128.05 402.581 3110.59 393.492 3092.54 381.309 3076.22 365.864 3055.54 349.173 3036.51 333.026 3018.11 315.515 2998.15 298.976 2979.3 284.688 2959.28 267.326 2934.96 252.987 2909.61 239.122 2885.09 228.091 2865.58 217.673 2847.16 206.084 2829.71 192.81 2809.72 178.659 2791.15 164.972 2773.19 147.606 2750.41 131.205 2728.89 117.986 2706.43 58.5298 2605.42 19.6464 2519 0 2440.15L0 2471.28C21.6033 2542.96 58.3133 2621.14 110.948 2710.57 124.418 2733.45 140.964 2755.16 158.478 2778.14 172.085 2796 186.156 2814.46 199.286 2834.22 210.711 2851.43 221.061 2869.73 232.016 2889.11 245.985 2913.81 260.434 2939.35 278.042 2964.02 292.569 2984.38 309.239 3003.38 326.89 3023.49 342.929 3041.78 359.516 3060.69 374.768 3081.11 386.524 3096.85 395.446 3114.58 404.077 3131.72 410.394 3144.27 416.931 3157.26 424.44 3169.1 432.749 3182.22 442.312 3194.45 451.56 3206.29 463.377 3221.4 474.539 3235.69 483.102 3251.42 492.081 3267.93 498.365 3285.88 504.442 3303.23 509.367 3317.3 514.462 3331.86 520.905 3345.25 572.729 3453.07 622.567 3566.81 673.268 3692.97L680.409 3710.77 689.204 3710.77C689.154 3710.65 689.104 3710.52 689.053 3710.4L680.842 3689.93ZM3278.19 384.233C3250.19 380.522 3221.96 376.778 3193.58 372.836 3003.81 346.454 2838.5 313.681 2688.2 272.638 2390.56 191.356 2142.64 175.578 1930.3 224.405 1701.33 277.048 1516.48 405.435 1312.22 653.688 1238.27 743.572 1164.63 846.985 1086.68 956.464 1015.38 1056.6 941.65 1160.15 856.795 1269.48 703.639 1466.82 561.09 1618.63 446.552 1740.61 418.246 1770.76 391.51 1799.23 366.267 1826.6 108.324 2106.28-2.23045 2239.47 80.4901 2465.78 135.358 2615.88 277.172 2801.83 503.587 3072.3 612.504 3202.42 668.1 3338.08 724.559 3489.18 732.876 3511.45 741.022 3533.55 749.107 3555.49 768.626 3608.45 787.729 3660.21 807.934 3710.77L815.927 3710.77C795.345 3659.41 775.925 3606.79 756.072 3552.92 747.983 3530.98 739.833 3508.86 731.51 3486.59 674.808 3334.83 618.951 3198.56 509.276 3067.54 289.087 2804.5 141.718 2611.66 87.4623 2463.23 6.23112 2241 115.905 2109 371.724 1831.63 396.942 1804.28 423.668 1775.82 451.962 1745.69 566.609 1623.6 709.285 1471.65 862.659 1274.03 947.604 1164.57 1021.38 1060.97 1092.72 960.769 1170.6 851.395 1244.16 748.088 1317.95 658.406 1521.09 411.516 1704.71 283.886 1931.96 231.638 2011.46 213.363 2095.98 204.202 2186.32 204.202 2335.91 204.202 2501.43 229.33 2686.24 279.798 2836.85 320.925 3002.47 353.764 3192.56 380.185 3220.95 384.131 3249.2 387.878 3277.22 391.593 3430.15 411.868 3574.61 431.019 3698.26 476.625 3702.52 478.198 3706.58 479.924 3710.77 481.55L3710.77 473.576C3707.43 472.293 3704.22 470.91 3700.82 469.66 3576.4 423.768 3431.55 404.566 3278.19 384.233ZM2795.56 2641.14C2798.88 2650.99 2800.66 2659.86 2800.98 2668.27 2801.3 2676.69 2800.2 2685.71 2797.63 2695.84 2795.07 2705.91 2791.76 2714.36 2787.51 2721.67 2783.35 2728.82 2777.86 2735.7 2770.24 2743.31 2762.51 2751.04 2755.04 2756.95 2747.41 2761.4 2739.97 2765.75 2731.16 2769.36 2720.49 2772.46 2709.76 2775.57 2700.66 2777.2 2691.86 2777.59 2690.46 2777.65 2689.05 2777.68 2687.62 2777.68 2680.12 2777.68 2672.18 2776.81 2663 2775.02 2652.14 2772.89 2643.08 2770.06 2635.31 2766.39 2627.35 2762.62 2619.43 2757.37 2611.11 2750.33 2602.92 2743.4 2596.92 2737.01 2592.22 2730.23 2587.41 2723.29 2583.47 2715.15 2580.17 2705.35 2576.85 2695.51 2575.08 2686.63 2574.76 2678.23 2574.43 2669.81 2575.53 2660.79 2578.1 2650.66 2580.66 2640.58 2583.98 2632.13 2588.23 2624.83 2592.38 2617.68 2597.87 2610.8 2605.49 2603.19 2613.23 2595.46 2620.69 2589.54 2628.32 2585.09 2635.76 2580.75 2644.57 2577.13 2655.24 2574.04 2665.97 2570.93 2675.07 2569.29 2683.87 2568.91 2692.62 2568.52 2701.81 2569.34 2712.73 2571.48 2723.61 2573.62 2732.67 2576.44 2740.42 2580.11 2748.38 2583.87 2756.29 2589.12 2764.62 2596.16 2772.81 2603.09 2778.82 2609.48 2783.52 2616.27 2788.31 2623.19 2792.26 2631.33 2795.56 2641.14ZM2793.56 2668.55C2793.27 2660.86 2791.62 2652.67 2788.53 2643.51 2785.45 2634.37 2781.81 2626.84 2777.41 2620.49 2773.09 2614.25 2767.51 2608.32 2759.83 2601.83 2752 2595.21 2744.61 2590.3 2737.25 2586.82 2730.06 2583.42 2721.57 2580.78 2711.3 2578.76 2702.6 2577.05 2695.12 2576.24 2688.09 2576.24 2686.78 2576.24 2685.48 2576.26 2684.2 2576.32 2676 2576.68 2667.46 2578.22 2657.31 2581.17 2647.23 2584.09 2638.97 2587.47 2632.06 2591.5 2624.99 2595.62 2618.01 2601.17 2610.74 2608.44 2603.58 2615.58 2598.47 2621.98 2594.64 2628.56 2590.74 2635.26 2587.68 2643.09 2585.29 2652.48 2582.9 2661.92 2581.88 2670.25 2582.17 2677.94 2582.46 2685.63 2584.11 2693.82 2587.2 2702.98 2590.28 2712.11 2593.91 2719.64 2598.32 2726 2602.64 2732.24 2608.22 2738.17 2615.9 2744.66 2623.73 2751.28 2631.11 2756.19 2638.48 2759.67 2645.69 2763.09 2654.18 2765.72 2664.43 2767.73 2674.76 2769.76 2683.35 2770.52 2691.54 2770.17 2699.73 2769.81 2708.28 2768.27 2718.42 2765.33 2728.5 2762.41 2736.77 2759.03 2743.67 2755 2750.74 2750.87 2757.72 2745.33 2765 2738.06 2772.15 2730.91 2777.27 2724.52 2781.09 2717.94 2784.99 2711.23 2788.05 2703.4 2790.44 2694.01 2792.83 2684.58 2793.85 2676.25 2793.56 2668.55ZM2853.48 2651.12C2855.24 2670.51 2856.39 2686.61 2853.96 2702.58 2851.51 2718.68 2845.52 2734.03 2835.13 2750.88 2826.15 2765.43 2814.47 2777.19 2800.4 2785.82 2788.69 2793 2774.2 2798.61 2754.8 2803.49 2736.98 2807.97 2721.73 2810.43 2706.83 2811.25 2704.22 2811.39 2701.63 2811.46 2699.03 2811.46 2688.06 2811.46 2676.97 2810.26 2664.27 2808.47 2651.72 2806.71 2636.96 2804.36 2622.61 2800.22 2611.24 2796.95 2600.2 2792.6 2589.51 2788.39L2582.86 2785.78C2578.14 2783.94 2573.32 2782.32 2568.48 2780.7 2563.78 2779.12 2559.06 2777.53 2554.4 2775.74 2548.65 2773.54 2543.02 2771.04 2537.37 2768.53 2533.76 2766.93 2530.16 2765.33 2526.52 2763.81 2523.61 2762.6 2520.68 2761.43 2517.75 2760.27 2511.37 2757.73 2504.77 2755.11 2498.46 2751.97 2489.73 2747.64 2480.86 2741.32 2472.08 2733.2 2462.16 2724.01 2456.09 2715.91 2452.42 2706.92 2448.65 2697.68 2447.4 2686.98 2448.6 2674.2 2450.13 2658.14 2455.55 2643.16 2464.72 2629.68 2473.6 2616.63 2485.58 2605.75 2497.2 2595.92 2510.48 2584.7 2522.93 2575.3 2534.2 2567.98 2541.78 2563.07 2549.28 2558.39 2556.58 2553.84 2563.79 2549.34 2570.82 2544.96 2577.53 2540.59 2582.16 2537.58 2586.66 2534.58 2591.04 2531.66 2601.46 2524.73 2611.3 2518.19 2620.79 2512.75 2640.73 2501.34 2655.94 2494.67 2668.67 2491.76 2680.48 2489.07 2692.78 2487.36 2703.39 2485.96 2713.53 2484.63 2726.19 2482.97 2738.92 2483.96 2749.1 2484.76 2760.16 2487.34 2773.75 2492.07 2790.86 2498.04 2804.04 2505.76 2814.04 2515.67 2824.07 2525.61 2831.72 2538.31 2838.11 2555.65 2843.57 2570.48 2847.14 2585.6 2848.72 2600.6 2850.27 2615.36 2851.48 2628.93 2852.62 2641.61L2853.48 2651.12ZM2845.75 2651.82 2844.89 2642.3C2843.76 2629.66 2842.54 2616.12 2841 2601.41 2839.49 2587.05 2836.07 2572.56 2830.83 2558.34 2824.84 2542.09 2817.77 2530.29 2808.58 2521.18 2799.42 2512.1 2787.19 2504.98 2771.2 2499.4 2758.25 2494.89 2747.81 2492.44 2738.32 2491.7 2727.26 2490.85 2716.85 2492.02 2704.4 2493.65 2693.96 2495.02 2681.88 2496.71 2670.4 2499.33 2658.44 2502.06 2643.9 2508.47 2624.65 2519.48 2615.38 2524.79 2605.64 2531.27 2595.34 2538.13 2590.93 2541.06 2586.42 2544.06 2581.76 2547.09 2575.01 2551.49 2567.94 2555.9 2560.69 2560.42 2553.42 2564.95 2545.97 2569.6 2538.42 2574.49 2527.43 2581.63 2515.24 2590.83 2502.2 2601.85 2491.01 2611.32 2479.49 2621.77 2471.14 2634.04 2462.7 2646.43 2457.73 2660.19 2456.33 2674.93 2455.24 2686.43 2456.32 2695.94 2459.6 2703.98 2462.83 2711.87 2468.3 2719.12 2477.35 2727.5 2485.59 2735.12 2493.85 2741.02 2501.91 2745.02 2507.93 2748.02 2514.38 2750.58 2520.62 2753.05 2523.59 2754.24 2526.56 2755.42 2529.51 2756.65 2533.2 2758.19 2536.86 2759.82 2540.51 2761.44 2546.04 2763.89 2551.56 2766.34 2557.17 2768.49 2561.73 2770.24 2566.35 2771.8 2570.95 2773.34 2575.91 2775.01 2580.85 2776.67 2585.67 2778.54L2592.36 2781.17C2602.87 2785.31 2613.74 2789.6 2624.76 2792.77 2638.64 2796.77 2653.07 2799.07 2665.35 2800.79 2680.61 2802.93 2693.44 2804.21 2706.4 2803.5 2720.8 2802.71 2735.58 2800.32 2752.91 2795.96 2771.52 2791.28 2785.32 2785.96 2796.34 2779.2 2809.36 2771.21 2820.2 2760.31 2828.53 2746.8 2838.36 2730.87 2844 2716.44 2846.29 2701.41 2848.59 2686.3 2847.47 2670.68 2845.75 2651.82ZM2906.18 2625.28C2910.76 2648.07 2915.08 2669.59 2914.9 2690.8 2914.69 2715.61 2908.5 2739.36 2895.42 2765.55 2884.75 2786.91 2869.16 2804.08 2849.09 2816.56 2833.21 2826.44 2812.82 2834.18 2784.93 2840.9 2759.74 2846.97 2738.33 2850.39 2717.54 2851.67 2713.61 2851.89 2709.68 2851.99 2705.75 2851.99 2690.54 2851.99 2675.42 2850.5 2660.7 2849.04 2642.05 2847.19 2623.14 2845.32 2604.51 2841.55 2591.77 2838.97 2579.03 2835.47 2566.71 2832.07 2561.07 2830.52 2555.42 2828.97 2549.76 2827.49 2541.63 2825.38 2533.1 2823.56 2524.86 2821.8 2517.17 2820.16 2509.42 2818.51 2501.7 2816.58 2492.73 2814.33 2483.66 2811.66 2474.88 2809.07 2468.02 2807.04 2461.12 2805 2454.15 2803.13 2448.41 2801.59 2442.61 2800.16 2436.79 2798.73 2426.77 2796.26 2416.4 2793.71 2406.28 2790.53 2391 2785.74 2375.46 2777.91 2360.09 2767.26 2342.5 2755.06 2331.15 2742.96 2324.37 2729.16 2317.27 2714.71 2315.06 2697.24 2317.79 2677.25 2320.81 2655.07 2330.95 2634.53 2347.92 2616.21 2362.92 2600.02 2382.51 2586.86 2401.3 2574.77 2421.9 2561.51 2441.72 2549.55 2458.61 2540.18L2464.99 2536.64C2485.83 2525.1 2505.52 2514.2 2523.11 2502.95 2537.9 2493.49 2551.1 2484.13 2563.87 2475.08 2571.09 2469.95 2577.98 2465.06 2584.61 2460.56 2612.62 2441.52 2633.66 2427.57 2649.27 2421.47 2661.86 2416.54 2675.81 2411.13 2690.6 2405.46L2692.44 2404.76C2705.38 2399.79 2718.76 2394.66 2733.91 2392.67 2747.09 2390.94 2761.5 2391.76 2779.26 2395.25 2805.32 2400.35 2825.24 2408.78 2840.17 2421 2855.71 2433.72 2867.31 2451.24 2876.66 2476.16 2884.13 2496.05 2889.37 2517.47 2892.23 2539.84 2895.86 2568.18 2899.74 2592.69 2904.08 2614.77L2906.18 2625.28ZM2906.8 2690.74C2906.98 2670.36 2902.73 2649.24 2898.24 2626.88L2896.14 2616.33C2891.76 2594.07 2887.86 2569.38 2884.2 2540.87 2881.41 2519.12 2876.33 2498.3 2869.08 2479.01 2860.25 2455.48 2849.44 2439.04 2835.05 2427.27 2821.17 2415.91 2802.41 2408.04 2777.7 2403.19 2766.43 2400.98 2756.63 2399.89 2747.71 2399.89 2743.27 2399.89 2739.04 2400.16 2734.96 2400.7 2720.76 2402.56 2707.84 2407.52 2695.34 2412.31L2693.5 2413.02C2678.72 2418.68 2664.8 2424.08 2652.22 2429.01 2637.4 2434.81 2616.73 2448.52 2589.16 2467.26 2582.57 2471.73 2575.73 2476.59 2568.55 2481.68 2556.31 2490.36 2542.43 2500.21 2527.48 2509.77 2509.66 2521.16 2489.87 2532.12 2468.91 2543.73L2462.54 2547.26C2445.79 2556.55 2426.13 2568.41 2405.68 2581.58 2387.33 2593.39 2368.22 2606.22 2353.86 2621.71 2338.05 2638.79 2328.61 2657.84 2325.81 2678.34 2323.3 2696.71 2325.26 2712.61 2331.64 2725.59 2337.78 2738.11 2348.29 2749.23 2364.7 2760.6 2379.4 2770.79 2394.21 2778.26 2408.7 2782.81 2418.58 2785.91 2428.83 2788.43 2438.73 2790.87 2444.6 2792.31 2450.45 2793.76 2456.25 2795.31 2463.28 2797.2 2470.25 2799.26 2477.17 2801.3 2485.87 2803.87 2494.85 2806.52 2503.66 2808.72 2511.3 2810.63 2518.95 2812.26 2526.55 2813.89 2534.88 2815.66 2543.49 2817.5 2551.8 2819.66 2557.49 2821.14 2563.18 2822.71 2568.86 2824.27 2581.05 2827.62 2593.65 2831.1 2606.11 2833.61 2624.35 2837.3 2643.04 2839.16 2661.13 2840.95 2679.71 2842.79 2698.56 2844.65 2717.06 2843.59 2737.35 2842.34 2758.32 2838.98 2783.03 2833.03 2810.06 2826.51 2829.69 2819.1 2844.81 2809.69 2863.59 2798 2878.18 2781.94 2888.18 2761.93 2900.68 2736.89 2906.61 2714.27 2906.8 2690.74ZM2974.62 2681.06C2976.74 2714.45 2970.42 2746.55 2954.72 2782.06 2942.28 2810.19 2922.83 2832.7 2896.89 2848.98 2876.54 2861.75 2851.03 2871.33 2814.2 2880.02 2793.66 2884.87 2762.32 2891.57 2727.33 2893.8 2721.7 2894.14 2716.07 2894.29 2710.44 2894.29 2694.47 2894.29 2678.39 2893.12 2661.61 2891.9L2646.36 2890.82C2626.41 2889.44 2605.78 2888.01 2585.19 2884.84 2570.32 2882.55 2555.24 2879.29 2540.66 2876.12 2532.33 2874.31 2523.97 2872.5 2515.57 2870.85 2504.57 2868.67 2493.58 2866.94 2481.95 2865.09 2470.78 2863.33 2459.23 2861.5 2447.75 2859.26 2435.42 2856.86 2422.85 2853.9 2410.7 2851.03 2400.72 2848.67 2390.68 2846.3 2380.52 2844.17 2371.75 2842.33 2362.88 2840.68 2353.98 2839.03 2340.52 2836.53 2326.59 2833.94 2312.89 2830.65 2291.61 2825.47 2268.92 2815.84 2247.26 2802.79 2221.87 2787.49 2205.41 2771.73 2195.47 2753.2 2184.89 2733.49 2181.73 2709.56 2186.06 2682.09 2190.54 2653.74 2205.41 2627.74 2230.27 2604.81 2250.74 2585.93 2275.89 2571.36 2304.27 2555.62 2330.7 2540.96 2358.31 2526.23 2382.02 2514.15 2414.1 2497.81 2442.72 2482.99 2468.12 2467.05 2492.84 2451.54 2514.56 2435.44 2533.73 2421.23 2538.75 2417.51 2543.62 2413.9 2548.36 2410.44 2558.96 2402.69 2568.72 2395.4 2577.64 2388.74 2599.46 2372.44 2616.69 2359.57 2629.03 2352.94 2638.43 2347.89 2649.19 2341.68 2660.58 2335.11 2665.81 2332.09 2671.22 2328.97 2676.79 2325.79L2678.57 2324.77C2692.92 2316.57 2709.18 2307.28 2727.78 2302.47 2743.83 2298.32 2762.26 2297.59 2784.1 2300.22 2818.93 2304.41 2845.48 2313.46 2865.27 2327.86 2886.41 2343.26 2902 2365.59 2914.31 2398.12 2923.74 2423.04 2930.65 2450.86 2934.85 2480.82 2940 2517.57 2946.16 2550.2 2953.69 2580.56 2955.52 2587.93 2957.38 2595.11 2959.21 2602.15 2966.3 2629.48 2973 2655.3 2974.62 2681.06ZM2966.21 2681.59C2964.63 2656.64 2958.03 2631.2 2951.04 2604.26 2949.21 2597.2 2947.34 2589.99 2945.51 2582.59 2937.9 2551.94 2931.69 2519.03 2926.5 2481.99 2922.38 2452.65 2915.63 2425.44 2906.42 2401.11 2894.72 2370.18 2880.06 2349.07 2860.3 2334.68 2841.71 2321.14 2816.45 2312.61 2783.09 2308.59 2762.31 2306.09 2744.9 2306.75 2729.89 2310.64 2712.39 2315.16 2697.32 2323.77 2682.75 2332.09L2680.97 2333.11C2675.41 2336.28 2670.02 2339.4 2664.8 2342.41 2653.35 2349.02 2642.54 2355.26 2633.02 2360.37 2621.23 2366.7 2604.22 2379.41 2582.69 2395.5 2573.74 2402.18 2563.96 2409.48 2553.34 2417.25 2548.61 2420.7 2543.75 2424.3 2538.75 2428.01 2519.46 2442.31 2497.6 2458.51 2472.6 2474.19 2446.91 2490.32 2418.11 2505.23 2385.85 2521.67 2362.23 2533.7 2334.71 2548.38 2308.36 2563 2280.47 2578.47 2255.77 2592.77 2235.99 2611.01 2212.56 2632.62 2198.57 2656.98 2194.39 2683.4 2190.35 2709.01 2193.21 2731.16 2202.9 2749.21 2212.1 2766.35 2227.57 2781.08 2251.61 2795.57 2272.55 2808.18 2294.42 2817.48 2314.88 2822.45 2328.35 2825.69 2342.16 2828.25 2355.52 2830.74 2364.49 2832.4 2373.42 2834.07 2382.26 2835.92 2392.48 2838.06 2402.59 2840.45 2412.63 2842.82 2424.71 2845.67 2437.19 2848.62 2449.36 2850.99 2460.69 2853.19 2472.17 2855.01 2483.27 2856.77 2494.47 2858.54 2506.05 2860.37 2517.2 2862.57 2525.65 2864.24 2534.06 2866.06 2542.45 2867.88 2556.9 2871.02 2571.85 2874.26 2586.47 2876.51 2606.71 2879.62 2627.16 2881.04 2646.94 2882.41L2662.22 2883.49C2684.64 2885.12 2705.82 2886.66 2726.81 2885.38 2761.14 2883.2 2792.02 2876.59 2812.26 2871.81 2848.15 2863.34 2872.87 2854.1 2892.41 2841.83 2916.89 2826.47 2935.26 2805.21 2947 2778.65 2962.13 2744.42 2968.24 2713.58 2966.21 2681.59ZM3033.99 2671.85C3038.44 2713.79 3032 2754.2 3013.72 2799.03 2999.49 2833.89 2976.19 2861.73 2944.44 2881.77 2919.81 2897.31 2888.6 2908.96 2843.21 2919.53 2818 2925.41 2779.54 2933.55 2736.86 2936.33 2729.34 2936.81 2721.81 2937 2714.23 2937 2697.53 2937 2680.59 2936.06 2662.97 2935.08L2650.98 2934.43C2645.19 2934.13 2639.36 2933.85 2633.5 2933.58 2611.37 2932.54 2588.48 2931.46 2565.47 2928.65 2548.17 2926.53 2530.51 2923.32 2513.42 2920.21 2502.69 2918.26 2491.91 2916.3 2481.03 2914.57 2467.46 2912.4 2453.92 2910.69 2439.59 2908.88 2424.52 2906.97 2408.93 2905.01 2393.4 2902.46 2377.53 2899.87 2361.3 2896.56 2345.61 2893.35 2332.84 2890.74 2319.64 2888.05 2306.49 2885.7 2294.72 2883.6 2282.83 2881.77 2270.88 2879.93 2253.94 2877.32 2236.43 2874.62 2219.13 2871.12 2191.66 2865.5 2162.28 2854.28 2134.15 2838.68 2101.44 2820.54 2079.24 2800.58 2066.29 2777.66 2052.2 2752.71 2048.08 2722.32 2054.06 2687.35 2059.97 2652.82 2079.59 2621.4 2112.37 2593.94 2140.25 2570.6 2175.64 2552.73 2206.86 2536.97 2236.87 2521.83 2269.93 2505.54 2305.12 2488.55 2339.77 2471.83 2379.53 2452.26 2412.97 2431.58 2447.56 2410.18 2476.79 2387.86 2502.57 2368.17L2512.26 2360.78C2535.01 2343.48 2554.42 2327.64 2570.02 2314.91 2586.29 2301.64 2599.14 2291.16 2608.58 2284.85 2617.59 2278.83 2628.29 2271.02 2639.62 2262.74 2646.84 2257.47 2654.49 2251.88 2662.5 2246.16L2663.61 2245.37C2680.14 2233.56 2698.89 2220.18 2721.18 2212.49 2740.35 2205.89 2762.45 2203.65 2788.76 2205.61 2832.29 2208.89 2865.4 2218.52 2890 2235.06 2916.8 2253.1 2936.4 2280.21 2951.68 2320.38 2963.06 2350.31 2971.65 2384.57 2977.2 2422.22 2983.94 2467.96 2992.4 2508.76 3003.04 2546.96 3006.09 2557.9 3009.21 2568.48 3012.26 2578.8 3021.77 2610.96 3030.75 2641.34 3033.99 2671.85ZM3025.27 2672.78C3022.11 2643.06 3013.24 2613.05 3003.85 2581.28 3000.79 2570.92 2997.65 2560.3 2994.59 2549.32 2983.85 2510.76 2975.32 2469.6 2968.52 2423.5 2963.06 2386.48 2954.64 2352.84 2943.48 2323.5 2928.68 2284.58 2910.67 2259.55 2885.1 2242.34 2861.8 2226.67 2830.07 2217.51 2788.1 2214.36 2782.19 2213.92 2776.51 2213.69 2771.04 2213.69 2753.3 2213.69 2737.81 2216.04 2724.04 2220.79 2702.95 2228.06 2685.54 2240.49 2668.7 2252.51L2667.59 2253.3C2659.61 2259 2651.99 2264.57 2644.79 2269.82 2633.39 2278.15 2622.62 2286.02 2613.45 2292.14 2604.36 2298.22 2591.65 2308.59 2575.57 2321.71 2559.92 2334.48 2540.44 2350.38 2517.57 2367.76L2507.89 2375.15C2481.95 2394.96 2452.55 2417.41 2417.59 2439.03 2383.79 2459.94 2343.78 2479.63 2308.93 2496.45 2273.79 2513.41 2240.78 2529.68 2210.81 2544.8 2180.02 2560.35 2145.1 2577.97 2118 2600.67 2086.86 2626.75 2068.25 2656.41 2062.71 2688.83 2057.08 2721.76 2060.85 2750.19 2073.93 2773.34 2086.06 2794.81 2107.15 2813.68 2138.41 2831.01 2165.76 2846.19 2194.28 2857.08 2220.88 2862.53 2237.97 2865.99 2255.38 2868.67 2272.22 2871.26 2284.24 2873.11 2296.19 2874.95 2308.02 2877.07 2321.28 2879.43 2334.54 2882.14 2347.36 2884.76 2362.97 2887.95 2379.12 2891.24 2394.82 2893.81 2410.19 2896.32 2425.69 2898.28 2440.69 2900.18 2454.46 2901.92 2468.7 2903.71 2482.41 2905.91 2493.35 2907.65 2504.2 2909.62 2514.99 2911.58 2531.95 2914.66 2549.49 2917.85 2566.53 2919.94 2589.22 2922.72 2611.94 2923.78 2633.91 2924.81 2639.79 2925.09 2645.63 2925.37 2651.44 2925.67L2663.46 2926.33C2688.8 2927.73 2712.74 2929.05 2736.29 2927.58 2768.72 2925.47 2801.08 2920.35 2841.22 2910.99 2885.61 2900.65 2916 2889.35 2939.76 2874.35 2969.93 2855.31 2992.08 2828.85 3005.59 2795.72 3023.31 2752.29 3029.56 2713.22 3025.27 2672.78ZM3093.18 2662.85C3099.98 2713.3 3093.44 2762.01 3072.59 2816.15 3056.57 2857.74 3029.42 2890.89 2991.88 2914.67 2962.98 2932.98 2926.04 2946.7 2872.1 2959.16 2839.65 2966.67 2796.02 2975.7 2746.26 2978.99 2736.67 2979.6 2727.03 2979.85 2717.3 2979.85 2700.06 2979.85 2682.5 2979.08 2664.3 2978.3 2658.16 2978.03 2651.99 2977.77 2645.78 2977.53 2637.63 2977.21 2629.4 2976.96 2621.12 2976.71 2596.58 2975.97 2571.2 2975.21 2545.57 2972.63 2525.7 2970.63 2505.3 2967.41 2485.57 2964.29 2472.6 2962.24 2459.53 2960.18 2446.34 2958.4 2430.39 2956.25 2414.5 2954.57 2397.68 2952.8 2378.52 2950.78 2358.71 2948.69 2338.92 2945.84 2319.5 2943.05 2299.58 2939.38 2280.32 2935.82 2264.65 2932.94 2248.45 2929.95 2232.3 2927.38 2217.51 2925.03 2202.24 2922.98 2187.48 2921 2167.11 2918.26 2146.05 2915.43 2125.2 2911.7 2091.6 2905.63 2055.55 2892.82 2020.93 2874.65 1980.54 2853.45 1953.09 2829.77 1937.01 2802.24 1919.38 2772.07 1914.31 2735.23 1921.95 2692.75 1929.27 2652.05 1953.63 2615.22 1994.36 2583.27 2027.92 2556.96 2071.15 2536.52 2109.29 2518.49 2141.71 2503.16 2173.6 2488.37 2201.96 2475.21L2228.08 2463.08C2272.26 2442.55 2318.54 2420.24 2357.74 2396.25 2402.28 2369 2438.86 2340.46 2471.13 2315.28L2476.27 2311.27C2511.64 2283.68 2539.43 2259.15 2559.72 2241.23 2571.55 2230.8 2580.88 2222.55 2588.08 2216.89 2596.56 2210.22 2606.38 2201.8 2617.75 2192.05 2627.04 2184.09 2637.16 2175.42 2647.95 2166.51 2667.01 2150.76 2688.27 2133.21 2714.34 2122.59 2736.65 2113.5 2762.52 2109.76 2793.37 2111.14 2845.55 2113.48 2885.2 2123.7 2914.59 2142.38 2947.05 2163.02 2970.67 2194.9 2988.92 2242.71 3002.25 2277.63 3012.52 2318.35 3019.44 2363.74 3027.8 2418.56 3038.54 2467.57 3052.28 2513.58 3056.57 2527.95 3061 2541.79 3065.31 2555.26 3077.2 2592.39 3088.42 2627.47 3093.18 2662.85ZM3084.16 2664.06C3079.5 2629.48 3068.39 2594.78 3056.64 2558.04 3052.31 2544.51 3047.86 2530.61 3043.55 2516.19 3029.69 2469.77 3018.86 2420.36 3010.44 2365.11 3003.61 2320.36 2993.51 2280.27 2980.41 2245.96 2962.66 2199.45 2940.85 2169.87 2909.7 2150.07 2881.69 2132.26 2843.5 2122.51 2792.96 2120.24 2788.95 2120.06 2785.02 2119.97 2781.19 2119.97 2756.81 2119.97 2735.98 2123.61 2717.78 2131.02 2693 2141.12 2672.31 2158.2 2654.06 2173.28 2643.01 2182.4 2632.93 2191.03 2623.68 2198.97 2612.23 2208.78 2602.34 2217.26 2593.71 2224.05 2586.71 2229.55 2577.46 2237.72 2565.75 2248.06 2545.37 2266.05 2517.46 2290.7 2481.87 2318.45L2476.73 2322.46C2444.27 2347.79 2407.48 2376.5 2362.5 2404.02 2322.9 2428.25 2276.34 2450.69 2231.92 2471.35L2205.79 2483.48C2177.45 2496.62 2145.59 2511.41 2113.18 2526.72 2075.47 2544.55 2032.74 2564.75 1999.98 2590.44 1961.07 2620.97 1937.83 2655.93 1930.92 2694.36 1923.68 2734.65 1928.37 2769.4 1944.87 2797.65 1960.07 2823.65 1986.33 2846.2 2025.17 2866.59 2058.97 2884.34 2094.12 2896.84 2126.81 2902.73 2147.46 2906.43 2168.42 2909.25 2188.69 2911.97 2203.51 2913.96 2218.84 2916.02 2233.73 2918.39 2249.99 2920.97 2266.25 2923.97 2281.97 2926.87 2301.15 2930.4 2320.97 2934.06 2340.21 2936.83 2359.84 2939.65 2379.56 2941.73 2398.64 2943.74 2414.78 2945.45 2431.47 2947.21 2447.56 2949.38 2460.82 2951.16 2473.95 2953.24 2486.99 2955.29 2507.49 2958.53 2526.87 2961.59 2546.48 2963.57 2571.79 2966.11 2597.01 2966.87 2621.4 2967.61 2629.7 2967.86 2637.95 2968.11 2646.13 2968.42 2652.35 2968.66 2658.54 2968.93 2664.7 2969.2 2692.92 2970.42 2719.57 2971.58 2745.67 2969.9 2794.77 2966.66 2837.93 2957.72 2870.05 2950.29 2922.95 2938.07 2959.01 2924.71 2987 2906.97 3022.85 2884.26 3048.79 2852.6 3064.09 2812.87 3084.36 2760.22 3090.75 2712.94 3084.16 2664.06ZM3152.3 2653.92C3161.44 2712.86 3154.8 2769.86 3131.39 2833.32 3113.57 2881.64 3082.57 2920.1 3039.24 2947.62 3006.09 2968.68 2963.44 2984.47 2900.95 2998.83 2863.36 3007.46 2812.87 3017.86 2755.61 3021.68 2743.76 3022.45 2731.83 3022.74 2719.74 3022.74 2702.1 3022.74 2684.11 3022.12 2665.51 3021.49 2657.23 3021.2 2648.89 3020.91 2640.49 3020.68 2630.18 3020.4 2619.77 3020.22 2609.27 3020.04 2582.11 3019.57 2554.02 3019.09 2525.58 3016.69 2503.06 3014.78 2479.85 3011.52 2457.4 3008.36 2442.45 3006.25 2426.98 3004.07 2411.57 3002.27 2393.39 3000.14 2375.31 2998.5 2356.16 2996.76 2332.76 2994.64 2308.56 2992.44 2284.34 2989.28 2261.32 2986.28 2237.66 2982.24 2214.78 2978.33 2196.26 2975.17 2177.12 2971.9 2158.03 2969.12 2140.19 2966.51 2121.76 2964.29 2103.93 2962.13 2080.15 2959.26 2055.56 2956.28 2031.19 2952.31 1991.46 2945.79 1948.74 2931.38 1907.65 2910.64 1859.6 2886.38 1826.9 2858.98 1807.67 2826.86 1786.5 2791.48 1780.48 2748.19 1789.79 2698.2 1798.52 2651.32 1827.62 2609.09 1876.3 2572.68 1915.53 2543.34 1964.39 2521.34 2011.64 2500.06 2035.93 2489.12 2059.93 2478.41 2082.69 2468.26 2107.29 2457.28 2130.45 2446.95 2150.98 2437.66 2202.25 2414.47 2256.1 2389.12 2302.54 2360.94 2357 2327.9 2400.78 2293.17 2439.41 2262.53L2440.37 2261.76C2489.15 2223.07 2524.56 2189.47 2547.99 2167.24 2555.85 2159.79 2562.36 2153.62 2567.55 2148.97 2575.48 2141.88 2584.76 2132.93 2595.5 2122.57 2606.74 2111.73 2619.47 2099.45 2633.24 2086.84 2653.99 2067.83 2677.51 2046.29 2707.38 2032.71 2732.85 2021.13 2762.52 2015.91 2797.95 2016.71 2858.74 2018.11 2904.91 2028.92 2939.1 2049.74 2989.19 2080.24 3012.74 2130.15 3026.09 2165.04 3041.38 2204.96 3053.33 2252.15 3061.62 2305.31 3071.59 2369.25 3084.63 2426.49 3101.47 2480.28 3107.02 2498 3112.78 2515.09 3118.36 2531.6 3132.6 2573.78 3146.05 2613.62 3152.3 2653.92ZM3142.96 2655.37C3136.84 2615.87 3123.52 2576.41 3109.41 2534.62 3103.82 2518.06 3098.03 2500.93 3092.45 2483.1 3075.48 2428.86 3062.34 2371.18 3052.29 2306.77 3044.1 2254.26 3032.32 2207.72 3017.27 2168.42 2996.55 2114.29 2970.93 2080.18 2934.18 2057.8 2901.45 2037.87 2856.82 2027.52 2797.73 2026.16 2763.72 2025.33 2735.44 2030.32 2711.28 2041.3 2682.79 2054.26 2659.85 2075.27 2639.62 2093.8 2625.94 2106.33 2613.25 2118.57 2602.06 2129.37 2591.25 2139.79 2581.91 2148.8 2573.85 2156.01 2568.71 2160.61 2562.27 2166.72 2554.49 2174.1 2530.94 2196.44 2495.36 2230.2 2446.25 2269.16L2445.28 2269.93C2406.43 2300.75 2362.41 2335.67 2307.44 2369.02 2260.57 2397.45 2206.42 2422.95 2154.87 2446.27 2134.33 2455.56 2111.16 2465.9 2086.54 2476.88 2063.79 2487.03 2039.8 2497.74 2015.51 2508.67 1968.73 2529.74 1920.36 2551.53 1881.97 2580.25 1835.24 2615.19 1807.35 2655.45 1799.07 2699.93 1790.2 2747.59 1795.82 2788.66 1815.78 2822.01 1834.05 2852.55 1865.5 2878.78 1911.91 2902.21 1952.15 2922.52 1993.93 2936.62 2032.71 2942.99 2056.89 2946.93 2081.38 2949.89 2105.07 2952.75 2122.95 2954.92 2141.44 2957.15 2159.39 2959.77 2178.6 2962.57 2197.8 2965.85 2216.37 2969.02 2240.21 2973.09 2262.72 2976.94 2285.57 2979.92 2309.6 2983.05 2333.7 2985.24 2357.02 2987.35 2375.38 2989.02 2394.37 2990.74 2412.67 2992.89 2428.19 2994.7 2443.71 2996.89 2458.72 2999 2482.07 3002.29 2504.12 3005.39 2526.38 3007.27 2554.51 3009.65 2582.42 3010.13 2609.43 3010.59 2619.97 3010.77 2630.41 3010.95 2640.75 3011.24 2649.17 3011.47 2657.53 3011.76 2665.83 3012.05 2696.94 3013.11 2726.32 3014.13 2754.99 3012.25 2811.58 3008.48 2861.59 2998.18 2898.83 2989.63 2960.23 2975.52 3001.97 2960.11 3034.18 2939.65 3075.71 2913.26 3105.44 2876.39 3122.53 2830.05 3145.36 2768.17 3151.85 2712.66 3142.96 2655.37ZM3211.45 2645.03C3222.87 2712.42 3216.1 2777.71 3190.14 2850.5 3170.5 2905.55 3135.66 2949.3 3086.57 2980.56 3049.14 3004.39 3000.77 3022.26 2929.74 3038.49 2887.07 3048.25 2829.76 3060.01 2764.9 3064.37 2750.6 3065.32 2736.17 3065.66 2721.5 3065.66 2703.64 3065.66 2685.42 3065.16 2666.62 3064.64 2656.22 3064.35 2645.71 3064.06 2635.12 3063.86 2622.71 3063.62 2610.15 3063.53 2597.47 3063.45 2567.65 3063.24 2536.81 3063.03 2505.51 3060.77 2480.3 3058.96 2455.4 3055.77 2429.04 3052.4 2411.98 3050.22 2394.33 3047.96 2376.73 3046.14 2356.41 3044.02 2336.23 3042.41 2314.86 3040.71 2287.12 3038.5 2258.45 3036.21 2229.71 3032.75 2203.07 3029.54 2175.67 3025.13 2149.17 3020.86 2127.81 3017.42 2105.72 3013.86 2083.68 3010.86 2062.77 3008.01 2041.15 3005.61 2020.24 3003.28 1993.07 3000.27 1964.97 2997.14 1937.1 2992.92 1891.25 2985.94 1841.88 2969.93 1794.31 2946.61 1738.6 2919.3 1700.64 2888.19 1678.28 2851.49 1653.54 2810.9 1646.57 2761.16 1657.55 2703.66 1667.69 2650.6 1701.54 2602.98 1758.18 2562.12 1803.04 2529.76 1858.79 2505.57 1912.7 2482.17L1913.89 2481.66C1933.56 2473.12 1953.05 2464.71 1971.96 2456.55 2009 2440.55 2044 2425.45 2073.8 2412.25 2129.4 2387.62 2193.49 2358.08 2247.28 2325.65 2311.63 2286.87 2363.13 2245.5 2404.51 2212.27 2467.71 2161.48 2510.05 2118.5 2535.34 2092.82 2539.8 2088.29 2543.69 2084.34 2547.01 2081.05 2554.39 2073.73 2563.04 2064.57 2573.07 2053.96 2586.41 2039.85 2601.53 2023.86 2618.4 2007.15 2639.89 1985.87 2666.65 1959.39 2700.28 1942.83 2728.93 1928.73 2762.56 1922.17 2802.48 1922.28 2871.89 1922.76 2924.58 1934.14 2963.55 1957.07 3021.16 1990.96 3048.07 2047.64 3063.3 2087.32 3080.56 2132.28 3094.17 2185.97 3103.74 2246.9 3115.47 2320.02 3130.85 2385.48 3150.78 2446.98 3157.56 2467.9 3164.61 2488.02 3171.43 2507.46 3188.05 2554.87 3203.75 2599.65 3211.45 2645.03ZM3201.8 2646.67C3194.25 2602.11 3178.68 2557.71 3162.2 2510.7 3155.36 2491.2 3148.29 2471.03 3141.48 2450 3121.39 2388.01 3105.89 2322.07 3094.08 2248.43 3084.61 2188.16 3071.18 2135.14 3054.17 2090.83 3030.48 2029.11 3001.01 1990.45 2958.6 1965.5 2921.14 1943.47 2870.06 1932.53 2802.42 1932.07 2801.66 1932.06 2800.89 1932.06 2800.14 1932.06 2762.59 1932.06 2731.32 1938.46 2704.6 1951.61 2672.39 1967.46 2647.37 1992.24 2625.28 2014.1 2608.52 2030.7 2593.46 2046.63 2580.18 2060.69 2570.1 2071.35 2561.39 2080.56 2553.9 2088 2550.6 2091.26 2546.74 2095.18 2542.31 2099.69 2516.87 2125.52 2474.28 2168.75 2410.63 2219.89 2369.03 2253.31 2317.25 2294.91 2252.33 2334.03 2198.21 2366.65 2136.45 2395.2 2077.77 2421.19 2047.92 2434.41 2012.9 2449.52 1975.84 2465.53 1956.93 2473.69 1937.45 2482.1 1917.79 2490.63L1916.59 2491.15C1863.16 2514.34 1807.91 2538.31 1763.9 2570.06 1709.36 2609.41 1676.81 2654.98 1667.16 2705.49 1656.65 2760.54 1663.2 2807.94 1686.64 2846.4 1708 2881.46 1744.63 2911.36 1798.62 2937.83 1845.3 2960.72 1893.7 2976.42 1938.57 2983.25 1966.25 2987.44 1994.25 2990.55 2021.33 2993.56 2042.29 2995.89 2063.97 2998.3 2085 3001.17 2107.16 3004.18 2129.31 3007.75 2150.72 3011.2 2178.35 3015.65 2204.43 3019.85 2230.88 3023.04 2259.42 3026.48 2288 3028.76 2315.63 3030.96 2336.12 3032.59 2357.31 3034.28 2377.73 3036.4 2395.45 3038.24 2413.16 3040.51 2430.28 3042.7 2456.5 3046.05 2481.27 3049.22 2506.21 3051.02 2537.2 3053.25 2567.87 3053.46 2597.54 3053.66 2610.26 3053.75 2622.85 3053.84 2635.31 3054.08 2645.93 3054.28 2656.46 3054.57 2666.89 3054.86 2700.89 3055.8 2733 3056.69 2764.25 3054.61 2828.42 3050.3 2885.24 3038.63 2927.56 3028.96 2997.45 3012.98 3044.87 2995.5 3081.32 2972.3 3128.53 2942.25 3162.04 2900.17 3180.92 2847.22 3206.3 2776.07 3212.93 2712.34 3201.8 2646.67ZM3270.46 2636.14C3284.24 2712.03 3277.39 2785.61 3248.88 2867.69 3227.44 2929.45 3188.76 2978.5 3133.91 3013.48 3092.22 3040.07 3038.14 3060.01 2958.55 3078.15 2910.74 3089.03 2846.58 3102.16 2774.2 3107.06 2757.27 3108.19 2740.15 3108.58 2722.7 3108.58 2704.8 3108.58 2686.55 3108.17 2667.77 3107.76 2655.22 3107.48 2642.55 3107.2 2629.74 3107.04 2615.32 3106.86 2600.71 3106.88 2585.95 3106.9 2553.38 3106.94 2519.68 3107 2485.41 3104.87 2457.48 3103.12 2429.82 3099.87 2400.54 3096.42 2381.42 3094.17 2361.64 3091.84 2341.88 3089.99 2319.52 3087.9 2297.32 3086.32 2273.81 3084.64 2241.66 3082.36 2208.43 3079.99 2175.07 3076.22 2144.8 3072.79 2113.62 3068.01 2083.48 3063.37 2059.3 3059.66 2034.3 3055.82 2009.34 3052.6 1985.36 3049.51 1960.57 3046.94 1936.59 3044.45 1906.02 3041.28 1874.4 3038 1843.01 3033.52 1791.07 3026.09 1735.04 3008.47 1680.99 2982.57 1617.61 2952.21 1574.41 2917.38 1548.89 2876.11 1520.59 2830.31 1512.67 2774.13 1525.33 2709.1 1536.87 2649.88 1575.47 2596.88 1640.05 2551.58 1690.56 2516.16 1753.08 2489.82 1813.54 2464.35L1865.09 2442.67C1913.27 2422.43 1958.79 2403.31 1996.63 2386.82 2059.07 2359.62 2131.12 2326.89 2192.08 2290.34 2260.5 2249.32 2314.66 2206.58 2368.69 2162.77 2447.7 2098.67 2497.97 2044.09 2522.13 2017.86L2526.49 2013.12 2526.49 2013.12C2533.32 2005.74 2541.35 1996.57 2550.45 1986.2 2565.11 1969.47 2583.37 1948.66 2603.52 1927.45 2626.78 1902.98 2655.73 1872.51 2693.15 1852.96 2724.55 1836.56 2762.87 1828.11 2807.04 1827.85 2885.07 1827.32 2944.22 1839.36 2987.98 1864.41 3038.17 1893.17 3072.84 1937.96 3100.39 2009.63 3119.59 2059.55 3134.89 2119.71 3145.88 2188.47 3159.21 2270.78 3176.87 2344.46 3199.88 2413.72 3207.94 2437.99 3216.34 2461.26 3224.47 2483.76 3243.42 2536.25 3261.32 2585.82 3270.46 2636.14ZM3260.51 2637.95C3251.52 2588.46 3233.76 2539.27 3214.95 2487.2 3206.8 2464.63 3198.38 2441.3 3190.27 2416.91 3167.1 2347.13 3149.31 2272.94 3135.89 2190.07 3125.01 2122 3109.89 2062.52 3090.95 2013.26 3064.28 1943.91 3030.98 1900.71 2982.95 1873.2 2940.79 1849.05 2883.41 1837.46 2807.1 1837.97 2764.56 1838.22 2727.8 1846.28 2697.84 1861.93 2661.91 1880.7 2633.6 1910.49 2610.85 1934.43 2590.85 1955.48 2572.67 1976.21 2558.06 1992.87 2548.89 2003.32 2540.8 2012.55 2533.93 2019.99L2533.92 2019.99 2529.57 2024.71C2505.25 2051.12 2454.65 2106.07 2375.06 2170.62 2320.74 2214.68 2266.27 2257.65 2197.29 2299.02 2135.83 2335.86 2063.41 2368.77 2000.68 2396.1 1962.77 2412.62 1917.22 2431.75 1869.01 2452L1817.47 2473.67C1757.5 2498.94 1695.48 2525.07 1645.87 2559.87 1583.5 2603.61 1546.29 2654.48 1535.27 2711.04 1523.1 2773.48 1530.58 2827.23 1557.5 2870.79 1581.97 2910.36 1623.79 2943.94 1685.36 2973.45 1738.5 2998.9 1793.51 3016.21 1844.44 3023.5 1875.63 3027.95 1907.15 3031.22 1937.64 3034.38 1961.67 3036.88 1986.53 3039.46 2010.64 3042.57 2035.72 3045.8 2060.78 3049.65 2085.01 3053.37 2116.45 3058.2 2146.13 3062.76 2176.2 3066.16 2209.35 3069.91 2242.49 3072.27 2274.53 3074.55 2297.06 3076.16 2320.35 3077.82 2342.82 3079.92 2362.7 3081.78 2382.54 3084.11 2401.73 3086.37 2430.86 3089.8 2458.38 3093.04 2486.04 3094.76 2519.99 3096.88 2553.53 3096.83 2585.94 3096.78 2590.8 3096.77 2595.65 3096.77 2600.49 3096.77 2610.36 3096.77 2620.15 3096.8 2629.87 3096.92 2642.71 3097.08 2655.41 3097.36 2667.99 3097.64 2704.85 3098.45 2739.68 3099.22 2773.52 3096.96 2845.2 3092.11 2908.85 3079.09 2956.3 3068.28 3034.7 3050.42 3087.8 3030.88 3128.47 3004.95 3181.35 2971.22 3218.64 2923.93 3239.33 2864.37 3267.23 2784 3273.96 2712.05 3260.51 2637.95ZM3329.5 2627.28C3345.64 2711.64 3338.7 2793.5 3307.66 2884.88 3284.4 2953.36 3241.88 3007.7 3181.28 3046.4 3135.32 3075.76 3075.52 3097.78 2987.39 3117.8 2934.47 3129.82 2863.49 3144.31 2783.52 3149.75 2763.78 3151.08 2743.78 3151.51 2723.33 3151.51 2705.61 3151.51 2687.55 3151.19 2669.01 3150.86 2654.31 3150.6 2639.43 3150.33 2624.38 3150.23 2607.95 3150.11 2591.34 3150.26 2574.51 3150.4 2539.15 3150.69 2502.59 3151 2465.34 3148.97 2434.67 3147.31 2404.25 3143.97 2372.04 3140.44 2350.86 3138.12 2328.95 3135.72 2307.05 3133.85 2282.67 3131.77 2258.47 3130.21 2232.85 3128.56 2196.27 3126.2 2158.45 3123.76 2120.45 3119.7 2086.53 3116.06 2051.57 3110.9 2017.76 3105.9 1990.78 3101.91 1962.88 3097.79 1935.02 3094.35 1907.94 3091.01 1879.95 3088.27 1852.87 3085.62 1818.92 3082.29 1783.81 3078.85 1748.95 3074.12 1690.91 3066.23 1628.22 3047 1567.64 3018.52 1496.56 2985.1 1448.07 2946.58 1419.42 2900.76 1387.5 2849.73 1378.66 2787.08 1393.14 2714.55 1405.97 2649.13 1449.28 2590.73 1521.87 2540.99 1578 2502.51 1647.31 2474.02 1714.35 2446.47L1758.91 2428.18C1818.04 2403.92 1873.89 2381 1919.49 2361.4 1988.77 2331.63 2068.79 2295.7 2136.93 2255.03 2214.19 2208.92 2276.15 2159.71 2332.98 2113.27 2429.9 2034.07 2487.19 1967.17 2506.02 1945.19L2506.03 1945.17C2512.41 1937.77 2519.88 1928.7 2528.34 1918.45 2544.83 1898.45 2565.36 1873.54 2588.66 1847.79 2613.7 1820.11 2644.87 1785.67 2686.04 1763.11 2720.59 1744.19 2762.85 1734.2 2811.64 1733.42 2898.16 1732.04 2963.89 1744.58 3012.41 1771.76 3068.34 1803.11 3106.92 1852.5 3137.51 1931.93 3158.93 1987.57 3175.46 2052.37 3188.04 2130.03 3202.98 2221.55 3222.92 2303.47 3249.01 2380.48 3258.36 2408.08 3268.12 2434.49 3277.56 2460.03 3298.83 2517.61 3318.93 2572 3329.5 2627.28ZM3319.23 2629.24C3308.82 2574.81 3288.87 2520.82 3267.75 2463.66 3258.28 2438.05 3248.5 2411.57 3239.1 2383.84 3212.83 2306.28 3192.75 2223.8 3177.72 2131.71 3165.25 2054.77 3148.91 1990.65 3127.75 1935.69 3098.1 1858.7 3060.95 1810.96 3007.3 1780.89 2960.43 1754.62 2896.48 1742.52 2811.81 1743.88 2764.73 1744.63 2724.11 1754.19 2691.06 1772.28 2651.44 1793.99 2620.93 1827.71 2596.42 1854.81 2573.28 1880.38 2552.83 1905.18 2536.4 1925.11 2527.9 1935.42 2520.38 1944.54 2513.96 1951.99 2494.99 1974.15 2437.24 2041.58 2339.6 2121.37 2282.46 2168.06 2220.16 2217.53 2142.3 2264.01 2073.62 2305 1993.22 2341.1 1923.62 2371.01 1877.94 2390.64 1822.05 2413.58 1762.88 2437.85L1718.32 2456.14C1651.79 2483.49 1583 2511.77 1527.78 2549.61 1457.53 2597.76 1415.68 2653.93 1403.4 2716.58 1389.45 2786.43 1397.83 2846.52 1428.28 2895.22 1455.84 2939.28 1502.88 2976.52 1572.09 3009.06 1631.72 3037.09 1693.36 3056.01 1750.35 3063.75 1785.02 3068.46 1820.03 3071.89 1853.89 3075.21 1881.03 3077.87 1909.09 3080.62 1936.3 3083.97 1964.28 3087.42 1992.24 3091.56 2019.29 3095.55 2054.55 3100.76 2087.85 3105.69 2121.57 3109.3 2159.34 3113.34 2197.05 3115.77 2233.52 3118.12 2258.07 3119.7 2283.46 3121.34 2307.94 3123.43 2329.97 3125.31 2351.94 3127.72 2373.18 3130.05 2405.24 3133.56 2435.52 3136.88 2465.91 3138.53 2502.83 3140.54 2539.23 3140.24 2574.42 3139.94 2586.96 3139.83 2599.39 3139.73 2611.7 3139.73 2615.97 3139.73 2620.22 3139.74 2624.45 3139.77 2639.54 3139.88 2654.46 3140.14 2669.2 3140.4 2708.92 3141.11 2746.42 3141.77 2782.82 3139.31 2862.05 3133.93 2932.53 3119.53 2985.07 3107.6 3071.97 3087.86 3130.75 3066.27 3175.65 3037.59 3234.2 3000.2 3275.28 2947.69 3297.76 2881.52 3328.19 2791.92 3335.02 2711.76 3319.23 2629.24ZM3388.39 2618.39C3406.86 2711.2 3399.89 2801.33 3366.42 2902.05 3341.26 2977.22 3294.89 3036.84 3228.59 3079.25 3178.34 3111.38 3112.84 3135.49 3016.19 3157.4 2958.18 3170.56 2880.38 3186.43 2792.83 3192.4 2753.49 3195.08 2713.16 3194.54 2670.44 3193.97 2653.51 3193.74 2636.35 3193.51 2618.98 3193.48 2600.72 3193.44 2582.2 3193.73 2563.45 3194.01 2545.13 3194.27 2526.52 3194.55 2507.66 3194.55 2487.11 3194.55 2466.28 3194.22 2445.23 3193.22 2411.46 3191.6 2377.9 3188.11 2342.38 3184.41 2319.51 3182.04 2295.86 3179.58 2272.2 3177.67 2246.46 3175.7 2220.91 3174.22 2193.85 3172.65 2152.2 3170.23 2109.13 3167.74 2065.8 3163.3 2028.12 3159.45 1989.26 3153.87 1951.68 3148.47 1922 3144.21 1891.31 3139.8 1860.66 3136.14 1830.34 3132.52 1798.98 3129.58 1768.66 3126.74 1731.49 3123.26 1693.05 3119.65 1654.87 3114.68 1590.73 3106.33 1521.39 3085.49 1454.35 3054.43 1375.63 3017.96 1321.91 2975.73 1290.11 2925.33 1254.65 2869.11 1244.83 2800.02 1260.94 2719.98 1275.22 2648.4 1323.3 2584.66 1403.84 2530.52 1465.54 2489.03 1541.54 2458.41 1615.03 2428.79L1650.88 2414.34C1721.69 2385.82 1788.57 2358.88 1842.32 2335.96 1918.42 2303.72 2006.38 2264.73 2081.89 2219.85 2168.04 2168.65 2238.29 2112.49 2297.36 2063.86 2390.29 1987.37 2451 1920.14 2485.56 1877.21L2485.57 1877.2C2491.33 1870.06 2498.02 1861.49 2505.55 1851.84 2523.96 1828.24 2546.87 1798.89 2573.68 1767.99 2599.09 1738.73 2633.87 1698.66 2678.83 1673.09 2716.57 1651.64 2762.8 1640.15 2816.24 1638.95 2911.4 1636.5 2983.6 1649.5 3036.93 1678.86 3098.56 1712.77 3141.02 1766.83 3174.63 1854.11 3198 1914.81 3216.17 1985.95 3230.19 2071.57 3246.74 2172.31 3268.94 2262.48 3298.08 2347.22 3308.71 2378.15 3319.82 2407.7 3330.57 2436.28 3354.13 2498.95 3376.39 2558.15 3388.39 2618.39ZM3377.8 2620.5C3365.98 2561.12 3343.87 2502.32 3320.46 2440.07 3309.69 2411.43 3298.55 2381.81 3287.87 2350.73 3258.53 2265.41 3236.18 2174.66 3219.54 2073.32 3205.64 1988.43 3187.66 1918 3164.56 1857.99 3131.93 1773.25 3090.96 1720.92 3031.73 1688.32 2980.12 1659.91 2909.72 1647.29 2816.5 1649.74 2764.85 1650.9 2720.33 1661.91 2684.16 1682.48 2644.08 1705.27 2614.1 1737.9 2581.84 1775.07 2555.21 1805.75 2532.39 1834.99 2514.06 1858.48 2506.49 1868.18 2499.76 1876.8 2493.97 1883.99 2459.08 1927.31 2397.85 1995.12 2304.23 2072.19 2244.84 2121.07 2174.21 2177.54 2087.41 2229.13 2011.34 2274.34 1922.96 2313.52 1846.55 2345.89 1792.71 2368.85 1725.78 2395.81 1654.92 2424.35L1619.07 2438.8C1546.09 2468.21 1470.62 2498.62 1409.86 2539.47 1331.77 2591.97 1285.23 2653.41 1271.52 2722.1 1255.98 2799.34 1265.31 2865.78 1299.24 2919.56 1329.89 2968.16 1382.12 3009.07 1458.89 3044.64 1524.94 3075.25 1593.2 3095.76 1656.26 3103.98 1694.25 3108.92 1732.59 3112.52 1769.67 3115.99 1800.06 3118.84 1831.49 3121.79 1861.94 3125.42 1892.72 3129.1 1923.48 3133.52 1953.22 3137.79 1992.42 3143.41 2029.44 3148.73 2066.9 3152.56 2109.99 3156.97 2152.94 3159.46 2194.48 3161.87 2220.39 3163.37 2247.19 3164.93 2273.05 3166.91 2296.85 3168.83 2320.56 3171.29 2343.49 3173.68 2378.86 3177.35 2412.28 3180.83 2445.75 3182.43 2485.78 3184.35 2525.18 3183.77 2563.29 3183.21 2582.1 3182.93 2600.63 3182.6 2618.99 3182.69 2636.41 3182.71 2653.61 3182.95 2670.59 3183.17 2713.08 3183.74 2753.21 3184.28 2792.1 3181.63 2878.9 3175.71 2956.18 3159.95 3013.81 3146.87 3109.18 3125.25 3173.62 3101.59 3222.77 3070.15 3286.94 3029.11 3331.82 2971.4 3356.18 2898.63 3389.02 2799.78 3395.9 2711.4 3377.8 2620.5ZM3447.4 2609.54C3468.26 2710.86 3461.15 2809.28 3425.04 2919.26 3398.15 3001.15 3347.97 3066.07 3275.88 3112.22 3221.37 3147.11 3150.13 3173.28 3044.89 3197.08 2981.73 3211.36 2897.06 3228.59 2802.01 3235.1 2760.07 3237.97 2717 3237.5 2671.39 3236.99 2652.35 3236.78 2633 3236.55 2613.47 3236.61 2593.19 3236.64 2573.04 3237.03 2551.71 3237.43 2529.1 3237.86 2506.08 3238.3 2482.72 3238.3 2463.68 3238.3 2444.43 3238.01 2424.99 3237.19 2388.82 3235.66 2352.85 3232.16 2314.77 3228.45 2289.51 3225.99 2263.38 3223.45 2237.23 3221.54 2208.95 3219.48 2180.9 3217.95 2151.2 3216.34 2105.61 3213.87 2058.47 3211.31 2011.03 3206.65 1969.82 3202.59 1927.3 3196.67 1886.18 3190.95 1853.57 3186.41 1819.86 3181.71 1786.18 3177.84 1752.89 3174.01 1718.47 3170.92 1685.17 3167.94 1644.5 3164.3 1602.44 3160.54 1560.65 3155.29 1490.4 3146.47 1414.42 3124.03 1340.92 3090.38 1254.57 3050.86 1195.61 3004.92 1160.67 2949.93 1121.66 2888.54 1110.87 2813.01 1128.59 2725.45 1144.33 2647.71 1197.15 2578.59 1285.58 2520.01 1353 2475.35 1435.89 2442.48 1516.05 2410.7L1552 2396.45C1630.93 2365.17 1705.48 2335.62 1765.03 2310.54 1848.03 2275.6 1944 2233.28 2026.49 2184.36 2121.28 2128.15 2197.45 2067.04 2261.42 2014.17 2367.51 1926.47 2439.38 1850.5 2468.68 1812.09 2476.21 1802.23 2484.46 1788.84 2494.01 1773.34 2509.81 1747.73 2529.46 1715.85 2555.04 1685.4 2585.69 1648.92 2626.8 1615.03 2673.93 1587.39 2709.94 1566.28 2759.14 1541.79 2820.54 1539.87 2912.71 1537 2990.65 1553.56 3058.9 1590.53 3131.97 1630.11 3183.33 1690.39 3215.91 1774.82 3239.49 1835.92 3250.51 1905.94 3261.17 1973.65 3263.28 1987.08 3265.39 2000.52 3267.61 2013.91 3287.53 2134.54 3318.98 2233.31 3347.11 2314.02 3359.05 2348.25 3371.53 2380.92 3383.6 2412.51 3409.51 2480.3 3433.98 2544.33 3447.4 2609.54ZM3436.5 2611.78C3423.26 2547.46 3398.95 2483.84 3373.2 2416.48 3361.1 2384.81 3348.59 2352.07 3336.6 2317.68 3308.31 2236.53 3276.68 2137.19 3256.63 2015.72 3254.41 2002.31 3252.29 1988.84 3250.17 1975.38 3239.6 1908.24 3228.68 1838.82 3205.53 1778.83 3173.93 1696.97 3124.24 1638.58 3053.59 1600.32 2992.06 1566.99 2922.24 1550.69 2840.71 1550.69 2834.17 1550.69 2827.57 1550.79 2820.89 1551 2762 1552.84 2714.43 1576.55 2679.56 1597 2633.52 1624 2593.41 1657.04 2563.57 1692.56 2538.5 1722.39 2519.09 1753.88 2503.49 1779.18 2493.78 1794.94 2485.39 1808.54 2477.53 1818.85 2447.87 1857.72 2375.33 1934.45 2268.51 2022.75 2204.22 2075.88 2127.64 2137.32 2032.18 2193.93 1949.1 2243.2 1852.69 2285.72 1769.35 2320.81 1709.69 2345.92 1635.09 2375.49 1556.1 2406.8L1520.15 2421.05C1440.52 2452.62 1358.18 2485.27 1291.73 2529.29 1205.85 2586.18 1154.64 2652.92 1139.5 2727.66 1122.37 2812.31 1132.65 2885.08 1170.07 2943.96 1203.82 2997.08 1261.22 3041.66 1345.55 3080.26 1418.03 3113.44 1492.89 3135.56 1562.03 3144.24 1603.63 3149.47 1645.59 3153.22 1686.16 3156.85 1719.53 3159.84 1754.02 3162.93 1787.45 3166.78 1821.26 3170.67 1855.04 3175.37 1887.71 3179.92 1930.61 3185.89 1971.13 3191.53 2012.11 3195.56 2059.31 3200.21 2106.34 3202.76 2151.81 3205.22 2180.25 3206.77 2209.66 3208.37 2238.04 3210.44 2264.33 3212.35 2290.52 3214.9 2315.85 3217.37 2353.77 3221.06 2389.6 3224.55 2425.46 3226.06 2468.42 3227.88 2510.65 3227.08 2551.49 3226.3 2572.88 3225.9 2593.08 3225.51 2613.45 3225.47 2633.05 3225.44 2652.42 3225.65 2671.51 3225.86 2716.89 3226.36 2759.75 3226.84 2801.25 3223.99 2895.54 3217.54 2979.67 3200.42 3042.43 3186.22 3146.36 3162.72 3216.51 3137 3269.88 3102.84 3339.75 3058.12 3388.4 2995.18 3414.47 2915.78 3449.94 2807.73 3456.95 2711.13 3436.5 2611.78Z" fill="url(#fill0)" transform="matrix(1.00458 0 0 1 -2214.76 9.11313)"/></g></svg>