<svg xmlns="http://www.w3.org/2000/svg"  viewBox="0 0 100 100" width="400px" height="400px" baseProfile="basic"><path fill="none" stroke="#1f212b" stroke-miterlimit="10" stroke-width="2" d="M39,58c0,0-6.75,7.562-7.75,8.562s-3,3-7-1	s-10.25-25-10.25-34s4.234-15.518,12.187-16.375C33.89,14.358,42,18,42,18"/><path fill="none" stroke="#1f212b" stroke-miterlimit="10" stroke-width="2" d="M71.213,56.947	c2.681-2.106,2.968-8.713,2.489-12.734c-0.479-4.021,0.331-6.392,0.235-11.275C70.682,19.629,53.612,10.839,43.75,17.062	s-8.854,20.137-8.375,24.062s-2.444,6.539-0.625,12.188s7.644,6.698,10.037,6.698c2.394,0,4.883,0.957,4.883,3.543	s-0.287,10.34,0.287,16.66c0.574,6.319,3.983,8.376,6.511,8.713c7.878,1.048,10.628-4.309,11.394-6.702s2.052-12.439,2.298-18.096	c0.191-4.404,3.351-4.309,3.351-4.309s3.608,2.339,9.957,0.415c2.106-0.638,3.096,0.638,1.468,2.17	c-1.628,1.532-6.017,4.56-14.124,3.283"/><path fill="none" stroke="#1f212b" stroke-miterlimit="10" stroke-width="2" d="M74.085,33.617c0,0-6.523-2.242-8.71,2.195	c-1.893,3.841,3.987,18.294,8.199,23.592"/><path fill="none" stroke="#1f212b" stroke-miterlimit="10" stroke-width="2" d="M34.574,36.617c0,0,7.652-4.612,11.801-1.867	S48.936,48.106,47.149,52c-1.787,3.894-2.362,7.787-2.362,7.787s-0.447,5.106-7.596,5.936c-2.809,0.447-1.915,2.298,0.128,2.872	c2.043,0.574,8.681,2.043,12.574-3.83"/><path fill="none" stroke="#1f212b" stroke-linecap="round" stroke-miterlimit="10" stroke-width="2" d="M57.617,15.809	c0,0,17.356-4.174,25.383,5.629c6.553,8.003-4.766,33.882-10.191,38.158"/><path fill="#1f212b" d="M69.154,38.037c-1.652,0.168-3.423-1.939-0.096-2.346C72.177,35.31,71.323,37.817,69.154,38.037z"/><path fill="#1f212b" d="M43.223,38.848c-1.824-0.23-3.212-2.945,0.481-2.556C47.165,36.657,45.619,39.151,43.223,38.848z"/><path fill="none" stroke="#1f212b" stroke-linecap="round" stroke-linejoin="round" stroke-miterlimit="10" d="M39.492,27.447	c-0.236,0.688-0.451,1.425-0.641,2.213"/><path fill="none" stroke="#1f212b" stroke-linecap="round" stroke-linejoin="round" stroke-miterlimit="10" d="M47.808,18.479	c-2.789,0.876-5.771,2.939-7.731,7.456"/><path fill="none" stroke="#1f212b" stroke-linecap="round" stroke-linejoin="round" stroke-miterlimit="10" d="M55.064,18.298	c0,0-2.11-0.621-4.851-0.319"/><path fill="none" stroke="#1f212b" stroke-linecap="round" stroke-linejoin="round" stroke-miterlimit="10" d="M20.148,21.817	c-1.921,2.074-3.369,5.451-3.173,10.945"/><path fill="none" stroke="#1f212b" stroke-linecap="round" stroke-linejoin="round" stroke-miterlimit="10" d="M28.319,18.553	c0,0-3.417-0.258-6.503,1.833"/><path fill="none" stroke="#1f212b" stroke-linecap="round" stroke-linejoin="round" stroke-miterlimit="10" d="M53.549,82.6	c0.649,1.702,1.858,3.266,4.1,3.613"/><path fill="none" stroke="#1f212b" stroke-linecap="round" stroke-linejoin="round" stroke-miterlimit="10" d="M52.83,77.596	c0,0-0.095,1.358,0.186,3.001"/></svg>